<mxfile host="65bd71144e">
    <diagram id="AI81oknxM7CrsUjlJJOC" name="Page-1">
        <mxGraphModel dx="1917" dy="2267" grid="1" gridSize="10" guides="1" tooltips="1" connect="1" arrows="1" fold="1" page="1" pageScale="1" pageWidth="850" pageHeight="1100" math="0" shadow="0">
            <root>
                <mxCell id="0"/>
                <mxCell id="1" parent="0"/>
                <mxCell id="wPz8ffhpFI3xmUe8NB3q-155" value="" style="rounded=0;whiteSpace=wrap;html=1;fontSize=52;" parent="1" vertex="1">
                    <mxGeometry x="1205" y="680" width="2070" height="995" as="geometry"/>
                </mxCell>
                <mxCell id="wPz8ffhpFI3xmUe8NB3q-154" value="" style="rounded=0;whiteSpace=wrap;html=1;fontSize=52;" parent="1" vertex="1">
                    <mxGeometry x="1300" y="-90" width="1880" height="670" as="geometry"/>
                </mxCell>
                <mxCell id="wPz8ffhpFI3xmUe8NB3q-17" style="edgeStyle=none;rounded=0;orthogonalLoop=1;jettySize=auto;html=1;exitX=0;exitY=0.5;exitDx=0;exitDy=0;entryX=0.5;entryY=0;entryDx=0;entryDy=0;fontSize=21;" parent="1" source="wPz8ffhpFI3xmUe8NB3q-4" target="wPz8ffhpFI3xmUe8NB3q-5" edge="1">
                    <mxGeometry relative="1" as="geometry"/>
                </mxCell>
                <mxCell id="wPz8ffhpFI3xmUe8NB3q-18" style="edgeStyle=none;rounded=0;orthogonalLoop=1;jettySize=auto;html=1;exitX=0.5;exitY=1;exitDx=0;exitDy=0;entryX=0.5;entryY=0;entryDx=0;entryDy=0;fontSize=21;" parent="1" source="wPz8ffhpFI3xmUe8NB3q-4" target="wPz8ffhpFI3xmUe8NB3q-8" edge="1">
                    <mxGeometry relative="1" as="geometry"/>
                </mxCell>
                <mxCell id="wPz8ffhpFI3xmUe8NB3q-19" style="edgeStyle=none;rounded=0;orthogonalLoop=1;jettySize=auto;html=1;exitX=1;exitY=0.5;exitDx=0;exitDy=0;entryX=0.5;entryY=0;entryDx=0;entryDy=0;fontSize=21;" parent="1" source="wPz8ffhpFI3xmUe8NB3q-4" target="wPz8ffhpFI3xmUe8NB3q-9" edge="1">
                    <mxGeometry relative="1" as="geometry"/>
                </mxCell>
                <mxCell id="wPz8ffhpFI3xmUe8NB3q-4" value="carta" style="ellipse;whiteSpace=wrap;html=1;fontSize=21;" parent="1" vertex="1">
                    <mxGeometry x="2310" width="120" height="80" as="geometry"/>
                </mxCell>
                <mxCell id="wPz8ffhpFI3xmUe8NB3q-20" style="edgeStyle=none;rounded=0;orthogonalLoop=1;jettySize=auto;html=1;exitX=0.5;exitY=1;exitDx=0;exitDy=0;entryX=0.5;entryY=0;entryDx=0;entryDy=0;fontSize=21;" parent="1" source="wPz8ffhpFI3xmUe8NB3q-5" target="wPz8ffhpFI3xmUe8NB3q-10" edge="1">
                    <mxGeometry relative="1" as="geometry"/>
                </mxCell>
                <mxCell id="wPz8ffhpFI3xmUe8NB3q-21" style="edgeStyle=none;rounded=0;orthogonalLoop=1;jettySize=auto;html=1;exitX=0.5;exitY=1;exitDx=0;exitDy=0;entryX=0.5;entryY=0;entryDx=0;entryDy=0;fontSize=21;" parent="1" source="wPz8ffhpFI3xmUe8NB3q-5" target="wPz8ffhpFI3xmUe8NB3q-11" edge="1">
                    <mxGeometry relative="1" as="geometry"/>
                </mxCell>
                <mxCell id="wPz8ffhpFI3xmUe8NB3q-22" style="edgeStyle=none;rounded=0;orthogonalLoop=1;jettySize=auto;html=1;exitX=0.5;exitY=1;exitDx=0;exitDy=0;entryX=0.5;entryY=0;entryDx=0;entryDy=0;fontSize=21;" parent="1" source="wPz8ffhpFI3xmUe8NB3q-5" target="wPz8ffhpFI3xmUe8NB3q-12" edge="1">
                    <mxGeometry relative="1" as="geometry"/>
                </mxCell>
                <mxCell id="wPz8ffhpFI3xmUe8NB3q-5" value="0" style="ellipse;whiteSpace=wrap;html=1;fontSize=21;" parent="1" vertex="1">
                    <mxGeometry x="1680" y="120" width="120" height="80" as="geometry"/>
                </mxCell>
                <mxCell id="wPz8ffhpFI3xmUe8NB3q-137" style="edgeStyle=none;rounded=0;orthogonalLoop=1;jettySize=auto;html=1;exitX=0.5;exitY=1;exitDx=0;exitDy=0;entryX=0.5;entryY=0;entryDx=0;entryDy=0;fontSize=21;" parent="1" source="wPz8ffhpFI3xmUe8NB3q-8" target="wPz8ffhpFI3xmUe8NB3q-128" edge="1">
                    <mxGeometry relative="1" as="geometry"/>
                </mxCell>
                <mxCell id="wPz8ffhpFI3xmUe8NB3q-138" style="edgeStyle=none;rounded=0;orthogonalLoop=1;jettySize=auto;html=1;exitX=0.5;exitY=1;exitDx=0;exitDy=0;entryX=0.5;entryY=0;entryDx=0;entryDy=0;fontSize=21;" parent="1" source="wPz8ffhpFI3xmUe8NB3q-8" target="wPz8ffhpFI3xmUe8NB3q-129" edge="1">
                    <mxGeometry relative="1" as="geometry"/>
                </mxCell>
                <mxCell id="wPz8ffhpFI3xmUe8NB3q-139" style="edgeStyle=none;rounded=0;orthogonalLoop=1;jettySize=auto;html=1;exitX=0.5;exitY=1;exitDx=0;exitDy=0;entryX=0.5;entryY=0;entryDx=0;entryDy=0;fontSize=21;" parent="1" source="wPz8ffhpFI3xmUe8NB3q-8" target="wPz8ffhpFI3xmUe8NB3q-131" edge="1">
                    <mxGeometry relative="1" as="geometry"/>
                </mxCell>
                <mxCell id="wPz8ffhpFI3xmUe8NB3q-8" value="1" style="ellipse;whiteSpace=wrap;html=1;fontSize=21;" parent="1" vertex="1">
                    <mxGeometry x="2310" y="120" width="120" height="80" as="geometry"/>
                </mxCell>
                <mxCell id="wPz8ffhpFI3xmUe8NB3q-9" value="2" style="ellipse;whiteSpace=wrap;html=1;fontSize=21;" parent="1" vertex="1">
                    <mxGeometry x="3010" y="130" width="120" height="80" as="geometry"/>
                </mxCell>
                <mxCell id="8" value="" style="edgeStyle=none;html=1;fontSize=48;" edge="1" parent="1" source="wPz8ffhpFI3xmUe8NB3q-10" target="7">
                    <mxGeometry relative="1" as="geometry"/>
                </mxCell>
                <mxCell id="wPz8ffhpFI3xmUe8NB3q-10" value="descripciÃ³n" style="ellipse;whiteSpace=wrap;html=1;fontSize=21;" parent="1" vertex="1">
                    <mxGeometry x="1550" y="230" width="120" height="80" as="geometry"/>
                </mxCell>
                <mxCell id="wPz8ffhpFI3xmUe8NB3q-11" value="id" style="ellipse;whiteSpace=wrap;html=1;fontSize=21;" parent="1" vertex="1">
                    <mxGeometry x="1680" y="230" width="120" height="80" as="geometry"/>
                </mxCell>
                <mxCell id="wPz8ffhpFI3xmUe8NB3q-109" style="edgeStyle=none;rounded=0;orthogonalLoop=1;jettySize=auto;html=1;exitX=0.5;exitY=1;exitDx=0;exitDy=0;entryX=0.5;entryY=0;entryDx=0;entryDy=0;fontSize=21;" parent="1" source="wPz8ffhpFI3xmUe8NB3q-12" target="wPz8ffhpFI3xmUe8NB3q-108" edge="1">
                    <mxGeometry relative="1" as="geometry"/>
                </mxCell>
                <mxCell id="wPz8ffhpFI3xmUe8NB3q-12" value="receta" style="ellipse;whiteSpace=wrap;html=1;fontSize=21;" parent="1" vertex="1">
                    <mxGeometry x="1820" y="230" width="120" height="80" as="geometry"/>
                </mxCell>
                <mxCell id="10" value="" style="edgeStyle=none;html=1;fontSize=48;" edge="1" parent="1" source="wPz8ffhpFI3xmUe8NB3q-13" target="9">
                    <mxGeometry relative="1" as="geometry"/>
                </mxCell>
                <mxCell id="wPz8ffhpFI3xmUe8NB3q-13" value="ingrediente" style="ellipse;whiteSpace=wrap;html=1;fontSize=21;" parent="1" vertex="1">
                    <mxGeometry x="1640" y="430" width="120" height="80" as="geometry"/>
                </mxCell>
                <mxCell id="12" value="" style="edgeStyle=none;html=1;fontSize=48;" edge="1" parent="1" source="wPz8ffhpFI3xmUe8NB3q-14" target="11">
                    <mxGeometry relative="1" as="geometry"/>
                </mxCell>
                <mxCell id="wPz8ffhpFI3xmUe8NB3q-14" value="cantidad" style="ellipse;whiteSpace=wrap;html=1;fontSize=21;" parent="1" vertex="1">
                    <mxGeometry x="1820" y="430" width="120" height="80" as="geometry"/>
                </mxCell>
                <mxCell id="wPz8ffhpFI3xmUe8NB3q-157" style="edgeStyle=none;rounded=0;orthogonalLoop=1;jettySize=auto;html=1;exitX=1;exitY=0.5;exitDx=0;exitDy=0;entryX=0;entryY=0.75;entryDx=0;entryDy=0;fontSize=52;" parent="1" source="wPz8ffhpFI3xmUe8NB3q-15" target="wPz8ffhpFI3xmUe8NB3q-152" edge="1">
                    <mxGeometry relative="1" as="geometry"/>
                </mxCell>
                <mxCell id="wPz8ffhpFI3xmUe8NB3q-158" style="edgeStyle=none;rounded=0;orthogonalLoop=1;jettySize=auto;html=1;exitX=1;exitY=0.5;exitDx=0;exitDy=0;fontSize=52;" parent="1" source="wPz8ffhpFI3xmUe8NB3q-15" edge="1">
                    <mxGeometry relative="1" as="geometry">
                        <mxPoint x="1040" y="1090.0000000000005" as="targetPoint"/>
                    </mxGeometry>
                </mxCell>
                <mxCell id="wPz8ffhpFI3xmUe8NB3q-15" value="" style="shape=image;verticalLabelPosition=bottom;labelBackgroundColor=default;verticalAlign=top;aspect=fixed;imageAspect=0;image=data:image/png,iVBORw0KGgoAAAANSUhEUgAAATgAAAM/CAYAAABF5c77AAAgAElEQVR4nOzdcUwbWb4v+K/ffXP/uPePS1rIsV1jNmR2WurXQiPsdGYStqPdSG+lWIDAqFs9icIfOzhEApHoqiP/AXeMp2ElltYNRiAFoVmpiWB6ZhQ7wplC+89o1fMCPR1s6yl6O1I/3ZANbcq2UIf3x71/vKu7Z/+osl1lbLDBYFP+fiSrcZ06p47d7V+fU3XqV5b/7Rd3BIiITOjf1boDREQnxSL+9T8LAPiv//TP+Lf/D/jRhb/BD35gAQD8678K/NPrf8Ff/Tvgxz/6W8Ti/w8AwO36D7XrMRFRmXIjuFTmvxuCGwD84AcW/OjC3yCV+e816RwR0XHkAty//ZswBLesH/zAgn/7N56mI6Kz59+XLFH+M0L/5yvs4W/gcH2A//kUO0VEVA0lAtwe5CevgA/+FwT+1yb83//p+9PtFRFRFZS4ivrfsPvf/gY/bms63d4QEVURl4kQkWkxwBGRaRUPcMoe3uJvYbefcm+IiKqo4CLD/4ulyTi2/u4iBkf/J9hq0ycioqooGMH9D+gf7UWgD/jt5H9CojZ9IiKqiuJTVHsTzuGfoSin3BsioiriRQYiMi0GOCIyrVyA+6u/suBf/zV7z+nfofnv/gW7KTWjyF/91f57VImI6l0uwNmsf41/ev0vWpBrgqfvIt7KEfzv/8f/he/+/V/XsItEREeTWyby4x/9Lf7rP/0zvt7c07KHOOG63gKb9a/x4x/9bQ27SER0NIZ1cD/+0d8ymBGRaViEEEz2RkSmxKuoRGRaDHBEZFpVDnAZRAYlSDMxADHMShJ8TzPVPcSJOOl+pyCHgggGtddj3gRHdBpKpyw/i+KzkBacSCz0wlrrvhTR2hVAv6vWvSBqHFUOcFa0vAd4LjgBAM5OAC31GGoKndV+E9GBxGmLhYTD4ci9BiJpXeGmCOnKHA8380U7YTHgCIlN/T53wiKdK3MY2lVfIZFvIS3Cd3Rl2boViC+Ni/HxL0S84g+tiD/MjIsvYhVXJKJjON0panwWUtdLzG0m0VskmWZs5jk6kkkk1XeYlboxey2Jkdy0bgrdkgdzm0kk7Wr5l/FejLh6sZjsPXCKmnn6JTCeRHIBUM+5tWP0aQcWezhSIzKrUwxwGUQWpuCZTxQNbgDgvj+if4eOB8CjNxnAlQ9C/uiiVr94eSnWnhH05t+h44YHw6+3gQrO1rXfDqC97L2JqNZOMcBtY/sZ0DZ4QECJz0LqmjJs8szr3/nRoTtJ776fxGK5h1ci8F0ahqzf9uBuubWJ6Aw6xXVwTvXkfSlKBL6uKfijSSST6mv1QbWOHcPspWFgPpFrOzHvqVbjRFSnTjHAqdPCqa5ZxEru44EzO32Nz6J7usJD2J3wPJPxvEQm4rbslVElgtEhufhOB0g8DiIYXGIqd6Iz4lTvZLD2LCIx/xLdkgRJe+UW1Np7cfeBjOFLWtmCE3OVjuDsvZicR74NKRtM3fhk3oOpLm37pW14OIIjMj3ebH8qUpBDC9j9kAt9iU4T70UlItPiCO5UqCO4F3va24vdCNzmghOik8YAR0SmxSkqEZlWVQJcJnMWUiIRUaPhCI6ITIsBjohMqz4TXsaXEIxuAWhFd6CfN7gT0ZHUYYBLYCm6xey3RHRs9TdF3VHwFq1oY3AjomOqvwBHRFQlDHBEZFr1F+BSu9hrakaJpL9ERGWrn4sMOzJCiy+wd7EbgXu8bkpEx1eVe1EzmQys1io9vCW+hOCfmjF4zwNbdVokogZVf1NUWzOa9nZRIikvEVHZ6i/AERFVCQMcEZlW/QU4hx3n8BbKTq07QkRnXf1dZAB4LyoRVUV9BjgioipgynIiMq26yOjLjMBEdBLq7yIDEVGVMMARkWmZKMDFMCtJ8D3NAEoEPknCbPyAvWe0fetE5qkP0iF9rq+2M4gMSpBmYjB891WSWuuDJTiJDQAbjy2whFaQqlrr+mNYtJd6rJraWUHfMfpzGt/ZWVM/N9sTnaadFQx9Ayz7BG46at0ZjeMmngRuqoFucavWvTEFEwU4J5ydAFqsgL0FbfDAeYZyLll7FpHsOUttW9HyHuC54ASA/HdfJbbzLqCpFa0A0OwF0Frd5AupLYSb+jBfL8GtCk78OzuLRBWk0+ma1i/zKCJ8xyEcjvxrIKI7biykKxsQ4Z2C2pEBQ91QrKB5Q3192+pxQzEhNh8Wa39ThEoeNy3CdwZEeEe/T0hsFn6ykn07qG1tj4eOEp+7vGMfJr40LsbHvxDxCusdThHLMxAYz74mxHqpsplloRTWlr1FtwshhIhN6Nr1iuVktfqlHXc8Xz5R+N+REEIkl4W3oJ5qXUyMH/y5yKhhAtzmQ4dwPNw0vM8FoZ2wGND/uGMh4495JywGDvpxx0IlA4g+sGaPV9gXrUciVDTAGQNPYV01uB0WeIq1rdW9ExZp/ftcW4XHVt8b/qdQhpMJcFoQWdofAoQQQpEndEFJ3dcrq6FgfQmGAJN9ZcvV4KILarGJfUHqwJ7J3pL92tdWbKJ4AC0a4Iyf47DvgFSNEeCKBCh9gEtHBgp+uPlRV75+kVGbbt/SP3wtUOgDWixkCCxaj0oGOMNxDXXV0VXxfh3WdrG6+uPtP3Y6MlAkMNdAFYJOqRGcInt1QUSIbCApOtIqdayifSsMUKr1pf3biga4Yp+55EiPskx0Du7otl/LkKdlSEPG7f5B7Q97Lxaj25C6JEwBQOccEgu9UM84bWP7GdA2ePD5J/81d/6NawTJhWN0+Nk2tgFYlTd4CQ88Rz7XeLbOU2al0nGgqU8911TMzgr6Fm8hrN928dOy2t7aDSP8KgzLN8btE2X2zXbjCdZ3LbgaHAMAeC8reHIjfybMdf4YZ8Wy59eobAxwGs98Aos9BwQp1wiSyREA6hKT9kFoQU69uLF9Sv0EAHQ64QS0iynHIWNbAfIPwFCDNQZL16gHtvMu4NtSpRuYXLwFXFYgtMCSWuuDfbf89guDUqWu3BYQ2b4E7eiDgic31LJ4OgXkTv2nsPU9gOYyG97bwpauNlJbCAMoL3Q3JhOtgzuAvQVtmMJzbR1Y5qkP3dP5Yvc1P+ShUUTKTCPsvODRvbOi44YHU12ziFWtw6XEMNs1Bc+NDm306EbHAxnD4xFUvgLNjY4HwNRCvm7m6SNMdc7hkyo+kzbxOIhgcAmJ6jUJuK5jYu8WhtZKr/LKjZR2VjD0TbjkfoWuvD+B8DdDWKlKuq5WtDZl/7bh+rtehL/5dX59W/zXuLU3gU/LCaau65jAGD7PfeYUVv40Bu/lX+BKBT1S/30EsXQC6y3rUYOM4NwYifrzU8wHq0jMA6PZYtcIktFZSJckDOfq+LGaHIEbakBsH5J17fmxmsxOUdVlGAn40C5JuT0OHRFmxWchdU3l31+SMAwP5jYX0auNrKay/S7Srvt+EqszEtolXc+jSYy4Dm97f13j56pfVzAaWMdk0K6bSk5gPTCKK7iCX1z2wh61YCyqbl++7EW43BGcaxQCk7AsWnArtzHb9mFSWAnZcWtPt+niem4kabvxBAr6YA9atEIvln1Pcu2m1vpg1wXjcHDM8Ln2fWZd2+Vqf78Vq6+28NYwkjSvukiXxHRLpWQQGWzH9qAWsIiOS3t63bmuAPob4L+pBhnBETW6FOTQAl7sAa0NEtwABjiiBmGD514AnsN3NBUGuLpmRe9CstadIDqzmNGXiEyLGX2JyLQaYx0cETUkBjgiMi0TBbhyMvqq+0iDh6z8VyLwSfo7EyrLFkxE9cFEAe6M+00fYLEAX9e6I0TmYaJlIuVk9HVjJJnEyIm0fVQp4GM70LsMoPx7JonocA1zq5bhftIHq0jedxt3KLxvU3cvankSWAquYutiNwK328vv2G/6gNYnwM82AMtVYEMAPyu/OhGV1jBTVGvPIpLJJBLzRdZyKxH4ul5ibjOJZDKJ5Obc6a34/vkTBjSiE2KiKerRxX47DMwnctk7jqYd/YEKRm5EdOIaZgRHRI2HAY6ITIsBDmqGXnntubY2LobZS8OQD6mzXwJLwSCCj6uau1aTghwKIhgMQa5KplmixtAgAS6DyKAESZLUK6nT3ZAkCdKMupTX2jOJOQyjXZIgSY/g3FyF/7S69vWkuv7NclV9f8VSZD2cDa53mwDsYbd0lm4iKtAwy0TOvPgSgtG3+MB3Dx4TPY2d6CTxKmrd09bXoYnBjahCHMERkWk1yDk4ImpEzOhLRKbFjL5EZFqcohKRaTHAEZFpmSjAmTTrbnwWkuRDRFFTPkmGTMPVaH8JwWBQe/FOCTIXroM7FRlEBtuxPZjESD0+UbzpAwze88BW634QVZmJAtxJZt2tIbsTHgAtdsDa0gZ0OuGsdZ+IzgpRBel0uqb1y7H50CEGImmRjgwIh8MhHA6HCMV0O8RCue0Ox4AI7+xrQYRy5Q7huBMW+V6nRfiOruzhpuG4Dsf+10BE95kNxy7oVzmSfxAz4+NiRlYqrCiEiH0hxmf+II5Qk6jumegc3OHkoXa0v76by+w7taA9Xaswo2+0DcOXCp+q1Y2X8wm1PJlEcqEX2XsvYjPtGH5vVStLYO4v3eq5QADu+9q2TsAfTebqL/ZY821/1ZFvN+rHVFeVz7MRNaiGCnDonENCexaD9aceeJ5tYxtA5s8yMD+Zz+jr+gRznVN4rl2kyDx9hKnOOUz2FLudLIbn036s5p7xYEXvoF+Xfukwbozonw/h6oAfL/FGqeBzOTy4Fwjg3g2eRSPSM9E5uMN5bnTkRl2w92Ixqf4Zey1DnpYhDRn39w+q/9x+LQPv3UXRu2WVN3iJKUxJU8btnXNl9ys2I6F72tBTlF+biEppqAB3EM98QjdtNHJe8ACvD6pd6RO48jJPfeie1tePYVZ6dISWiKhQY01RS3Bf80MeGkWkxLTQ+lMPPNPdxdfV2Tvg6ZxC98xBZ82saHkPmPqqxD66K6OxmW5MFd+rtB0ZoWAQoTVmwyTSY4ADANeIdmFBzfqrvnQn+u29WNycw8suXfmgdoECVvQuqBcW8nWl3EWGLPf9Vfinu/eVW3vuwv8sm01YwqMLc6eXTZjI5JgPrtHFlxD8UzMX+pIpcQRHRKbFiwwE7L3AQvAFwLToZDKcohKRaTGjLxGZ1pnP6MtswERUCi8yEJFpMcARkWnxKmqh+BKC0S0AregO9KO91v0hoiNjgDNIYCm6hdauAPrrMfMuEVWEU1S9HQVv0Yo2BjciU2CAIyLTYoAjItNigNNL7WKvqRlmeFYNEfEig2pHRmjxBfYudiNwj9dNicyCIzgg90yDwPsvEQzJYNpIInNggNOzNaNpbxeVPO+FiOoXAxwRmRYDHBGZFgOcnsOOc3gLZafWHSGiamCAM2hHf9c5vFgMIhhcQqLW3SGiY+EykUKufgR4qxaRKTCjLxGZVsNn9GVGYCLz4jk4IjItBjgiMi0GuGqIz0KSfIgoQOapD5I0i1jhPkoEPkmCNLOvpH7EZyENRmCctMcwK0lFttdSBpHB7Hep9s/3tFq9S2ElZIHl8QaADUwGLehbq/bNe9oxgtrr8UZ51eKTsAT7sLIDpNb6YAlOosyaDYsBjmomNlPNwHR2pNaGcAvLUAICIiAgbl+pdZdMi8tEqsHuhAdAix2wtrQBnU449+3Ti8Vkbw06d1xujCSTGKl1NwysaHkP8FxQv2VnJ4CWaj043IbWdwBvcysAoLUJwHlbldpWbe2G4X13HhW3amuFF0CrA7ClXEBTK1qr2jMTElWQTqdrVr+Wxy7X5kOHcDjU10Ck4HixkHA83BTpyECJfTZFyJGvr74GRHhHCCHSInzHIUIx/TGyZbr299XL0x/X4XAIx52wSBcre7i5/4Md0HY6MiAGImnDZw/FShyz6DGMn3vf93aouPhifFyML8UrrFeOdTExDoHsa2ZZKLkyRSzPlCrLl3tlpbBRtVT25uuOT4j1E+h9I2GAO4UAl7X5sESA0/+4YyHhcITEpq5OrmwnLAZ0gSIb4PQBYP/+usBT0HbR97oAlztKZGB/gDuk7WwQy/YrHRnY13bR70P3ufJlarDLf+5ynFSAU4Nb6QA1IZaTuXe6YFYQFHMvb37/2IQhqCmyt0iApEowwNVDgDP88DdFKBc4Cn/YhT98LcDpg4+uvewoKi8/4jP+XaovWq0iAe7gtovU2QmLAX0wLfV9ZPct6EfRIFsDlQYdRfYKLOnHYaVHcOtLEBOGIL4uJvQBkCrGc3B1zQlnJzD8VQwjLjegPIf8zAPPuPF8k/+aO//GNYLkgvpn7LUMeVqGNGRs1T94/J5tn2DbULYhP5uCLA0btz+4W4XGj2drNwy882np82c7K+hbvIWwftvFT8toOYWt74GxqAVjUf12L5aP2FfiRYY6p55Mx3Q3pGl1i2c+gd4KHhrhmU9gsadaJ+BPr210ziGx0IsTav3IWpu9wG6p0g1MLt4CLisQN9QQmFrrg73k/vtNdAmM8l7oquEykXqmRPBo2o/VZBJJ7VVJQHFf80MeGkWkaIpiNXhOfRXLHcvXNVWltsvjvOCBvPZ8//o6Vwf8z4YxeqwlJAksBYMIPq5uThjbT/rgfXUVk/HS+7iyV113VjD0Tbj0jsaWcf1dL8aix1zbFl9C8AQ+91nFAHfitIWykoTuaUAeaodU7sJUey/uPphCt1Y/+yp77ZhrBMloG4Yv6evnFyG776/CP92tbr+0jbubc/DkKmuLaSUJ7UOyOorUL1Q+pO1yWHsmMYdhtGfr5xZBuzGSXEWb9l1lX7MHBJVT47iJJ75lxKO6hbqhFe05Hlfwi8tejGXLFrfQd9lbdtO2G0+gXI7jarBY22VytalLR75X+GwRVCmbSCaTgdV69MnEcerX8tgnTonAd2kbd5MjcBu2yfBsLlY0VaVGkYIcWsCLd7oRuM0nxPEcXD1TtiED0J9az/xZhow23GVwowKptRAWvtkDLjK4ZXEEV88jOKi3M3VP67f4saof0RFRSRzB1Tn3/SSS92vdC6KziRl9ici0mNGXGX2JTIvLRIjItBjgiMi0GOCqoZyMvjWk9qmMhbJFM/qWSYnAZ/jcuky7WjbjulioSw2FAe7MU+84aMjg8Zs+wGIBvi4sSAEfW9QyiwX4rPDmp418mcUC/IZr/s2KAa4a7E540HZwRt8asvYsIplMYuRUb+JWM6G0tVgBewva4IGzaouTtQCGvuLFn9mBtnVACECsA7+8qgtiKeDjq8CKopZvLwM37UWCJJlCNXIuMR9cGccpyGK7Lw9b0bK0CN8ZEOEdfXbbgmSYRTLjFiaKLJXNt1i/jPng8gk195ft77ejIN/b4Y6YlHLFK8SGEEKsCwFof2u2l4WAV4jtgv0/Wlb/3pgQAhPG9n4FIX7F3LlmxBHcKcg89aF9qM2QFSQ/moph9quO3PZk1I+pLv25LBnDlx7BuZlEMpnAXOcUHmk327vvZ7cB/mixjCPq8xSSyVX4i3UsPmvsV9S4V+bpl8B4tt0E5qDL8KFE4Ot6iblNrdxwo/4J+/kT4Gclyr7bAj7qA36ovf96ErgZBn6/pb7figO/up7f/zd9wC8BvNw6wQ5TrTDAnbgYvhyS4Y+Wur3KjZH7+oSVHfDjJd7o0hD5o9kb663ouOGB/Hq7Cv3KILIwdUC/AGvPiO6GfuOxY78dBuYnj3nDfzv6A4GTuW/yuxX1/NoVqNNUxIHvdOVfT6rlkT51mvp7BjgzYoA7acobvDzk/FNsRp9yqBvlZ2U7YdlnuUq6tElnwe9vAc4t7RzcqDqqgys/qvvlVeAfW9Xy393URn18PpUZMcCdNHsL2g4ozjz1oduQ1LLEdPLUxTB7aRiYT+Smvon5U5uEHt0PWwF4ge3R/DZ9AGt1AZhQA1vWVhxoY4AzIwa4E+dGxwMZw+MHrC/TXXWNzVQ6givIzHvUeiUy+rZlnzeqRDCqG8EZs/GqwbDy8d0JZN394XXgozDw9yvahhTwj2NAr3be7WfXAYzplo5sqOfo/iMfvmxGDHCnwH0/idX3dJlrdYterT134X+WL3t0Ya7iEZwhM68+4298VjftlbXsu75cmvGDM/q68cm8B1NdUq7coxvBGbPxPoJz8xRHntnzZ5ar6vsrFt16OBvwOwXALW0fO9CrAD/PPibmSn7pSLaNDVH6ogWdacwHV+f54Ijo6DiCIyLTYoAjItNigCMi02JGXyIyrYbP6EtE5sUpKhGZFgMcEZkWHxuoSTwOYvUV+NBcIhPhCE7TfjuAQGAQH3y/iqVGzI5LZEIMcAY2uN5twts0U1gTmQEDHBGZFgMcEZkWA1wB2/lz2Ps2Dk5Sic4+BrhCrn4EPtzFQjCI0BrDHNFZxmUiBVJrISzsXkMg0F/rrhDRMXEEV0RTc9Ue4ElENcQAR0SmxQBHRKbFAGeQQvzbPZw7bzt8VyKqe7zIoMndi9r0AQZdh+5ORGcAA5ym/XYAvMWeyFyY0ZeITOvMZ/QlIiqFFxmIyLQY4IjItEx1kSF3JRRgZl4iMleAy14JVe8nrXVviKjWOEUlItNigCMi02KAIyLTYoAjItNigCMi02KAIyLTYoAjItNigCMi02KAIyLTYoAjItMy1a1axntRa9oVIqoDVUl4mclkYLVaa1afiKgYZvQlItOqi4y+REQngRcZiMi0GOCIyLTq6ipq7ioos/ESURXUxVVUoxTk0AJ2Pwygnw9gJqJjqMMpqg2ud5vwNp2qdUeI6IyrwwBHRFQdDHBEZFp1GeBs589h79s4OEklouOow4sMmvgSgtEtNF0exL0btuq2TUQNoa6WiWSpzzW9hkCgv9ZdIaIzrC4DHAA0NduLbs+ulWvt4jISIjpYXZ6DO0j7+60AwGUkRHSoMxfgYGtGE4Bz53lejogOVodT1BTi3+7h3IeFAUy9w+HFHqenRFSeurqKmrsXtekDDN7zgGM0IjqOugpwRETVxIy+RGRazOhLRKZ19q6iEhGViQGOiEyrDpeJIHcfKtCK7kA/mNuXiI6iDgNcAkvRLa51I6Jjq78p6o6Ct2hFG4MbER1T/QU4IqIqYYAjItOqvwCX2sVeUzOKJ0siIipf/Vxk2JERWnyBvYvdCNzjdVMiOr76uxc1voTgn5p5sz0RHVv9TVFtzWja24VS634Q0ZlXfwGOiKhKGOCIyLTqL8A57DiHt1B2at0RIjrr6u8iA8B7UYmoKuozwBERVQEz+hKRadVFRl9mBCaik1B/FxmIiKqEAY6ITMtEAS6GWUmC72kGUCLwSRJm4wfsPaPtWycyT32QDulzfbWdQWRQgjQTg+G7r5LUWh8swUlsANh4bIEltIJU1VqvLfWzWTBZ5X/XZv7OjspEAY6IyKh+sokcmxPOTgAtVsDegjZ44DxDOZesPYtI9pyltq1oeQ/wXHACQP67rxLbeRfQ1IpWAGj2Amg1TfIF240nEDdOoF0Tf2dHJqognU7XtH6ZRxHhOw7hcORfAxHdcWMhXdmACO8U1I4MGOqGYgXNG+rr21aPG4oJsfmwWPubIlTyuGkRvjMgwjv6fUJis/CTlezbQW1rezx0lPjc5R37MPGlcTE+/oWIV1jvcIpYnoHAePY1IdZLlc0sCyVXti4mxifEenJZeIuVxyaK7O8Vy0n9sdfFxHip9rU2dOVeWSlSr7BNIRTZK7yyItaX8nUnDP+dHXJc2qdhAtzmQ4dwPNw0vM8FoZ2wGND/uGMh4495JywGDvpxx0IlA4g+sGaPV9gXrUciVDTAGQNPYV01uB0WeIq1rdW9ExZp/ftcW4XHVt8b/qdQhpMJcFoAW1ovXipP6IKHuu/+IJMNiAXlhwY4tX6+vQKxiaLBy6hY0FQDnD4gKrJX15fCz3Hwd0CqxjgHp0TwaNqP1fvuosWZP8vA/CR6s1Na1yeY65zCc8NJ4ML3udqILEzBo69fzINVLPaoUzj3NT/wlzco95S8P7qYa9tYN4Yvh2T4oyMo/skOotUd7EV2Ymntmdz3ufPHtqLjhgfy6+2KjtJ+O4BAtW+3i/8at/YmsH77StFi241R3HTk3uH6u16Ed7d0e3ix7BvFlZLlpaXWPsdY0zLmbxSb/KWw8qcxeC/P645foYvreKK1bftJH7x7W9gCcp/509xxbbj50TK8r/6IjSMeqhE0RoA7xPZrGfJQOyRJ0l7tGH6m28Hei8WoH1NdWvlgRBectrH9DGg75PyT/5ouBLlGkFzIB5aKPdvGNgAob/DyWOcaz9Z5yqxUOp4/11TMzgr6ghZYtJf9m/DhjX6/VdYVx63dMPBOqXNbW9jaA1znT+jM10GfmYpigNN45hNIJpOG14j+0YWukdz21feG0Z4LctrFjdPU6YQT0C6mHIeMbUNmUTVY1zvb+YOeKbmBycVbwGUFIiAgAgLKZe/hjZYMWkatzQe11YrWpjIaOarsaC4rtYUyQndDa4wAZ29Bm26KmXnqQ/d0vth9zQ95aBSRMtMIOy94dO/UqdtU1yxiVetwKTHMdk3Bc6NDG/250fFAxvB4pOzpbp4bHQ+AqYV83czTR5jqnMMnVXwmbeJxEMHgEhLVaxJwXcfE3i0MrZUec+VGUTsrGDpoBKeVT7yvm+7mAkkKK6GrGNPtbvtJH7yvrpZYw6ZOd8eik9WfNrquYwJj+Dz3mbPT4V+g+ES9OPXfRxBLJ7Desh6ZaJnIQdwYifohdUmYAoAHq0jMA6PZYtcIktFZSJckDOfq+LGaVM9tZZ760D4k69rzYzWpP3e1iAR8aJek3B6e+UTunNuB4rOQuqby7y9JGIYHc5v5825T2X4Xadd9P4nVGQntkq7nUW30eUjb++saP1f9uoLRwDomg3ZYvslum8B6YBRXcAW/uOyFPWrBWFTdvnzZi/Cuvn4YtxYtuJWt2SUwmg3qrlGs/xcLrgbHtLJ1TEQ/z1d13MQTH9C3aIElqm1rWoZy7yZsUPN1UqgAACAASURBVJeAKOiDPWjJVfFeVtTzavFJWKK6cLlowS14sex7UsY5uyKf+eI6RNFzgaW1v9+K1VdbeJtOAQ2wiKQu0iUx3VIpGUQG27E9WDBdpmPYwGTwc7SWFVRMSHt63bmuAPob4L+pBhnBETW6FOTQAl7sAa0NEtwABjiiBmGD514AnsN3NBVOUYnItJjRl4hMixl9ici0GmMdHBE1JAY4IjItEwW4cjL6qvsY7yUtQonAJ+nvTKgsWzAR1QcTBbgz7DMLYNFeH6/UujdEpmGiAKfe9N52YEZfN0aSySNk8iin7SP6ehLAOiAEIBQAt4DPmACHqBoaZh2c4X7SB6tIFuaGK7xvU3cvankSWAquYutiNwK3j5H97Dd9QKQP+N3No7dBRABMNYI7mLVnEclkEon5Imu5lQh8XS8xt6mlStqca7gV30RmxFu1AMR+OwzMJw7OyHuodvQHjpm39rsV4GYY2HhyvHaICEADjeDq3wbgvAWsKMDPat0XInNggKsLG4DlKvCrdeDn5s/RRXRaGOCgZuiV157nHuQye2kY8iF19ktgKRhE8HGluWt1we0fSuVmTUEOBREMhiDvVNwxoobVIAEug8ig+sCY9iEZmO5WHx4zoy7ltfZMYg7DaJckSNIjODdX4T+trv1Gyxb7y6v5tXAWC/C1ficbXO82AdjDbjlPRiEiAA20TOTMiy8hGH2LD3z34GnETLRER8CrqHVPW1+HJgY3ogpxBEdEptUg5+CIqBExoy8RmRYz+hKRaXGKSkSmxQBHRKZlogBn0qy78VlIkg8RRU35JBkyDVej/SUEg0HtxTslyFy4Du5UZBAZbMf2YBIj9fhE8aYPMHjPA94FS2ZjogCnZt3FSWTdrSW7Ex4ALXbA2tIGdDrhrHWfiM4KUQXpdLqm9cux+dAhBiJpkY4MCIfDIRwOhwjFdDvEQrntDseACO/sa0GEcuUO4bgTFvlep0X4jq7s4abhuA7H/tdARPeZDccu6Fc5kn8QM+PjYkZWKqwohIh9IcZn/iCOUJOo7pnoHNzh5KF2tL++m8vsO7WgPV2rMKNvtA3DlwqfqtWNl/MJtbzguQ6xmXYMv7eqlSUw95du9VwgAPd9bVsn4I8mc/UXe6z5tr/qyLcb9WOqq8rn2YgaVEMFOHTOIaE9i8H6Uw88z7axDSDzZxmYn8xn9HV9grnOKTzXLlJknj7CVOccJnuK3U4Ww/NpP1Zzz3iwonfQr0u/dBg3RvTPh3B1wI+XeKNU8LkcHtwLBHDvBs+iEemZ6Bzc4Tw3OvJP07L3YjGp/hl7LUOeliENGff3D6r/3H4tA+/dLf4kLuUNXmIKU9KUcXvnXNn9is1I6J429BTl1yaiUhoqwB3EM5/QTRuNnBc8wOuDalf6BK68zFMfuqf19WOYlR4doSUiKtRYU9QS3Nf8kIdGESkxLbT+1APPdHfxdXX2Dng6p9A9c9BZMyta3gOmviqxj+7KaGymG1PF9yptR0YoGERojdkwifQY4ADANaJdWFCz/qov3Yl+ey8WN+fwsktXPqhdoIAVvQvqhYV8XSl3kSHLfX8V/unufeXWnrvwP8tmE5bw6MLc6WUTJjI55oNrdPElBP/UzIW+ZEocwRGRafEiAwF7L7AQfAEwLTqZDKeoRGRazOhLRKZ15jP6MhswEZXCiwxEZFoMcERkWryKWii+hGB0C0ArugP9aK91f4joyBjgDBJYim6htSuA/nrMvEtEFeEUVW9HwVu0oo3BjcgUGOCIyLQY4IjItBjg9FK72GtqhhmeVUNEvMig2pERWnyBvYvdCNzjdVMis+AIDsg90yDw/ksEQzKYNpLIHBjg9GzNaNrbRSXPeyGi+sUAR0SmxQBHRKbFAKfnsOMc3kLZqXVHiKgaGOAM2tHfdQ4vFoMIBpeQqHV3iOhYuEykkKsfAd6qRWQKzOhLRKbV8Bl9mRGYyLx4Do6ITIsBjohMiwGuGuKzkCQfIgqQeeqDJM0iVriPEoFPkiDN7CupH/FZSIMRGCftMcxKUpHttZRBZDD7Xar98z2tVu9SWAlZYHm8AWADk0EL+taqffOedoyg9nq8UV61+CQswT6s7ACptT5YgpMos2bDYoCjmonNVDMwnR2ptSHcwjKUgIAICIjbV2rdJdPiMpFqsDvhAdBiB6wtbUCnE859+/RiMdlbg84dlxsjySRGat0NAyta3gM8F9Rv2dkJoKVaDw63ofUdwNvcCgBobQJw3laltlVbu2F4351Hxa3aWuEF0OoAbCkX0NSK1qr2zIREFaTT6ZrVr+Wxy7X50CEcDvU1ECk4XiwkHA83RToyUGKfTRFy5OurrwER3hFCiLQI33GIUEx/jGyZrv199fL0x3U4HMJxJyzSxcoebu7/YAe0nY4MiIFI2vDZQ7ESxyx6DOPn3ve9HSouvhgfF+NL8QrrlWNdTIxDIPuaWRZKrkwRyzOlyvLlXlkpbFQtlb35uuMTYv0Eet9IGOBOIcBlbT4sEeD0P+5YSDgcIbGpq5Mr2wmLAV2gyAY4fQDYv78u8BS0XfS9LsDljhIZ2B/gDmk7G8Sy/UpHBva1XfT70H2ufJka7PKfuxwnFeDU4FY6QE2I5WTunS6YFQTF3Mub3z82YQhqiuwtEiCpEgxw9RDgDD/8TRHKBY7CH3bhD18LcPrgo2svO4rKy4/4jH+X6otWq0iAO7jtInV2wmJAH0xLfR/ZfQv6UTTI1kClQUeRvQJL+nFY6RHc+hLEhCGIr4sJfQCkivEcXF1zwtkJDH8Vw4jLDSjPIT/zwDNuPN/kv+bOv3GNILmg/hl7LUOeliENGVv1Dx6/Z9sn2DaUbcjPpiBLw8btD+5WofHj2doNA+98Wvr82c4K+hZvIazfdvHTMlpOYet7YCxqwVhUv92L5SP2lXiRoc6pJ9Mx3Q1pWt3imU+gt4KHRnjmE1jsqdYJ+NNrG51zSCz04oRaP7LWZi+wW6p0A5OLt4DLCsQNNQSm1vpgL7n/fhNdAqO8F7pquEyknikRPJr2YzWZRFJ7VRJQ3Nf8kIdGESmaolgNnlNfxXLH8nVNVant8jgveCCvPd+/vs7VAf+zYYweawlJAkvBIIKPq5sTxvaTPnhfXcVkvPQ+ruxV150VDH0TLr2jsWVcf9eLsegx17bFlxA8gc99VjHAnThtoawkoXsakIfaIZW7MNXei7sPptCt1c++yl475hpBMtqG4Uv6+vlFyO77q/BPd6vbL23j7uYcPLnK2mJaSUL7kKyOIvULlQ9puxzWnknMYRjt2fq5RdBujCRX0aZ9V9nX7AFB5dQ4buKJbxnxqG6hbmhFe47HFfzishdj2bLFLfRd9pbdtO3GEyiX47gaLNZ2mVxt6tKR7xU+WwRVyiaSyWRgtR59MnGc+rU89olTIvBd2sbd5Ajchm0yPJuLFU1VqVGkIIcW8OKdbgRu8wlxPAdXz5RtyAD0p9Yzf5Yhow13GdyoQGothIVv9oCLDG5ZHMHV8wgO6u1M3dP6LX6s6kd0RFQSR3B1zn0/ieT9WveC6GxiRl8iMi1m9GVGXyLT4jIRIjItBjgiMi0GuGooJ6NvDal9KmOhbNGMvmVSIvAZPrcu066WzbguFupSQ2GAO/PUOw4aLnh8ZgEs2uvjlYLCFPCxrvyzwpufNvJlFgvwG675NysGuGqwO+FB28EZfWvI2rOIZDKJkVO9iVvNhNLWYgXsLWiDB85qLU7+ehLAOiAEIBQAt4xB7DM70JYtXwd+eVUXxFLAx1eBFUUt314GbtqBr6vUN6ov1ci5xHxwZRynIIvtvjxsRcvSInxnQIR39NltC5JhFsmMW5goslQ232L9MuaDyyfU3F+2v9+Ognxvh6tSUsoVrxAfLat/by8LAa8Q2yXKNyaEwISx/q8gxK+YO9eMOII7BZmnPrQPtRmyguRHUzHMftWR256M+jHVpT+XJWP40iM4N5NIJhOY65zCI+1me/f97DbAHy2WcUR9nkIyuQp/sY7FZ439ihr3yjz9EhjPtpvAHHQZPpQIfF0vMbeplRtu1K+h77aAj/qAH2rvv54EboaB32+p77fiwK+u5/f/TR/wSwAvt067p3QKeCfDiYvhyyEZ/uhiidur3BjR36ng6oAfj/BGAdzalM4fzd5Yb0XHDQ+GX28Dx86UlkFkYQr+aLLkbV/WnhHkH5NjPHbst8NAhbnp9mtHf+CY90x+t6IGsI0n+7c7bwGYUKepls+B73TlX08CV8aAj5aB7T7AyQBnRhzBnTTlDV4ecv4pNqNPOdSN8rOynbDss1wlXdqkurKhBrEVBfiZbvPvb6kBSwhAjKqjOrjyo7pfXgX+sVUt/91NbdTH51OZEQPcSbO3oO2A4sxTH7oNSS1LTCdPXQyzl9RRWnbqm5ivi0moZgOwXAV+tQ78XJdA/IetALzA9mh+mz6AtboATKiBLWsrDrQxwJkRA9yJc6PjgYzh8QPWl+muusZmKh3BFWTmPWq9Ehl927LPG1UiGNWN4IzZeNVgWPn47qhZd3XB7R8KHpr8w+vAR2Hg77NLR1LAP44Bvdp5t59dBzCmu+q6oU5x/yMfvmxGDHCnwH0/idX3dJlrdYterT134X+WL3t0Ya7iEZwhM68+4298VjftlbXsu75cmvGDM/q68cm8B1NdUq7coxvBGbPxPoJz8xRHnr/5XP3nL68a17N9DQA24Hfa0hGLBbDYgV5FN8q7kl86YrGogXJDGKe4ZBrMB1fn+eCI6Og4giMi02KAIyLTYoAjItNiRl8iMq2Gz+hLRObFKSoRmRYDHBGZFm+21yQeB7H6CnxoLpGJcASnab8dQCAwiA++X8VSo2XHJTIpBjgDG1zvNuFtmimsicyAAY6ITIsBjohMiwGugO38Oex9GwcnqURnHwNcIVc/Ah/uYiEYRGiNYY7oLOMykQKptRAWdq8hEOivdVeI6JgY4Ipoai72AIUU5NACXuw14QPfPXgcp94tIqoQp6hlU5eQAHvY5cyV6EzgCK4CtvPnAADNtkN2JKK6wABnkEL82z2c+7AwgiWwFFzFFjg9JTpLGOA0uXtRmz7AoKuwtAoPKCaiU8cAp2m/HQBDGJG5MKMvEZkWM/oSkWlxmQgRmRYDHBGZFi8yFIovIRjdAtCK7kA/LzwQnWEMcAYJLEW30NoVQP++pSJEdNZwiqq3o+AtWtHG4EZkCgxwRGRaDHBEZFoMcHqpXew1NaNYsiQiOnt4kQEAdmSEFl9g72I3Avd43ZTILDiCAwCHB/cCAQTef4lgSObzGIhMggFOz9aMpr1dKLXuBxFVBQMcEZkWAxwRmRYDnJ7DjnN4C2Wn1h0hompggDNoR3/XObxYDCIYXEKi1t0homPhMpFCrn4EeKsWkSkwoy8RmVbDZ/RlRmAi8+I5OCIyLQY4IjItBrhqiM9CknyIKEDmqQ+SNItY4T5KBD5JgjSzr6R+xGchDUZgnLTHMCtJRbbXUgaRwex3qfbP97RavUthJWSB5fEGgA1MBi3oW9PdvLezgr6gBZagBZbgJDaqdFQASK31acc9Rn2tTxuPLbCEVhr+tkMGOKqZ2Ew1A9MpcdzEk4CA8C3DW+u+0KG4TKQa7E54ALTYAWtLG9DphHPfPr1YTPbWoHPH5cZIMomRWnfDwIqW9wDPBfVbdnYCaLFWqW0bWt8BvM2tAIDWJgDnbVVq+2TZzruApla0AkCzF0ArzkbPT5CognQ6XbP6tTx2uTYfOoTDob4GIgXHi4WE4+GmSEcGSuyzKUKOfH31NSDCO0IIkRbhOw4RiumPkS3Ttb+vXp7+uA6HQzjuhEW6WNnDzf0f7IC205EBMRBJGz57KFbimEWPYfzc+763Q8XFF+PjYnwpXmG9MiWXhXd8QqzvK1DE8gwExrXXUuEeBeW6NhTZK7C0LtaX8uUTsUrapkIMcKcQ4LI2H5YIcPofdywkHI6Q2NTVyZXthMWALlBkA5w+AOzfXxd4Ctou+l4X4HJHiQzsD3CHtJ0NYtl+pSMD+9ou+n3oPle+TA12oViRXUuqTYBbX9IHHjUgeWXF8L5UYFJkr8B4fn9F9grMLIts7YPbpmJ4Dq4edM4hcd+t/u3qgB8v8UYBgBieTwP+a1qZvQOeTuDlm4LzVg9WsdijTtHc1/zAX94gAyDzZxmYn0RvNkWx6xPMdU7heRwAMogsTMEfHYH7CF0+uO39/bL+1APPs21sl9O48hwy5jDZk512uvHJvAdTX1VygaYd/YEAArdPM4HpBv74agLrt69o7224+eEEwt/+UT3ZH/81bu3py4u4uI4nN9SJpe0nffDubWGrnLapKJ6Dq2tOODuB4a9iGHG51R/+Mw8848bzTbkACACuESQX1D9jr2XI0zKkIWOr/sHj92z7BNuGsg352RRkadi4/cHdKjR+gna2EMcYxoJjxu1NywCAVDoONPWp58iq3DYVxwBX19ST6ZjuhjStbvHMJ/KjpjJ45hO5UVS1nWTb6JxDYqEXJ9T6CZrAemAURcdo513AtyfUNhXFKWo9UyJ4NO3HajKJpPaqJKC4r/khD40iUjRFsRo8c9M+JQJf11SV2i6P84IH8trz/evrXB3wPxvG6LGWkCSwFAwi+PgUc8I4rqOvaQxXS61lc13HxN4tDK0dYVJ5WNtlSjwOIhgMYil++L5mwAB34rSFspKE7mlAHmqHVO7CVHsv7j6YQrdWP/sqe+2YawTJaBuGL+nr5xchu++vwj/drW6/tI27m3Pw5Cpri2klCe1DsjqK1C9UPqTtclh7JjGHYbRn6+cWQbsxklxFm/ZdZV+zdfCjVBfTWmBZvIUwxnDVsODXhpv3FCx/f1VbCKy+8guFr2A0sA7XN3ZdebmLhQ9ruzzt76sT5LfpxjhzV5VsIplMBlbr0ScTx6lfy2OfOCUC36Vt3E3qLgQoEfguyfBsLlY0VSUCkHuC3LmuAPobIC0Yz8HVM2UbMgD9qfXMn2XIaMNdBjeqSApyaAEv9oDWBgluAEdw9T2Cg3o7U/e0fosfq8mjLe0gajQcwdU59/0kkvdr3Quis4kZfYnItJjRlxl9iUyLy0SIyLQY4IjItBjgqqGcjL41pPapjIWyRTP6lkmJwGf43LpMu1o243pYqEuNhQHuzFPvOGis4LEBWCzG18cruvIU8LGu7LNqJhans4TLRKqhnIy+NWTtWUSy57SP6sxn2rW3oA0eOKu6OHkCEKPFiz6zA23rwO+uQA2GV4H/UQF+3vD5bRtPNZLKMeFlGccpyGJrSN5oyIxbmNByQIR39NltC5JhFsmMW5goslQ232L9MialzCfU3F+2v9+G5JllOWpSynUhMFG8aHtZCHiF2NZtW/EK8dFyhccgM+AU9RRknvrQPtRmyAoykrtVJobZrzpy25NRP6a69OeyZAxfegTnZhLJZAJznVN4pN1s776f3Qb4o8UyjqjPU0gmV+Ev1rH4rLFfUeNemadfAuPZdhOYgy7DhxKBr+sl5ja1csON+jX03RbwUR/wQ+3915PAzTDw+62adotqgwHuxMXw5ZB8QOZcN0bu6xNW6jP6qvzR7I31VnTc8EB+XVZe3EMcntHX2jOiu6HfeOzYb4eNGX2P5DhZd8d05+D6gO8Kir9bUcuuABDrAOL79yHTY4A7acobvDzk/FNsRp9yqBvlZ2U7YdlnuUq6tEl14QogRP614QKcuiD3+1uAc0srH1VHdXDlR3XUMBjgTpq9BW0HFGee+tBtSGpZYjp56mKYvTQMzCdyU9/EfF1MQvf72fX83z9sBeAFtnUXIL7bAj46UqJwOuMY4E6cGx0PZAyPH7C+THfVNTZT6QiuIDPvUeuVyOjbln3eqBLBqG4EZ8zGqwbDysd3Vcq6+9nV/Hm3H14HPgoDf59dNpIC/nEM6L1+UAtkUgxwp8B9P4nV93SZa3WLXq09d+F/li97dGGu4hGcITOvPuNvfFY37ZW17Lu+XJrxgzP6ak+y6pJy5R7dCM6YjfcRnJunOPL8etK4Bg7rwO9uaoU24HcKgFtauR3o5RKRRsV8cHWeD46Ijo4jOCIyLQY4IjItBjgiMi1m9CUi02r4jL5EZF6cohKRaTHAEZFpMR+cJvE4iNVXAC52H/HmbyKqNxzBadpvBxAIDOKD71ex1FDZcYnMiwHOwAbXu014m07VuiNEVAUMcERkWgxwRGRaDHAFbOfPYe/bODhJJTr7GOAKufoR+HAXC8EgQmsMc0RnGZeJFEithbCwew2BQH+tu0JEx8QAV0RTc7EHKKQghxbwYq8JH/juweM49W4RUYU4RS2buoQE2MMuZ65EZwJHcBWwnT8HAGhm9muiM4EBziCF+Ld7OPdhYQRLYCm4ii1wekp0ljDAaXL3ojZ9gEFXYWk7+gO8P5XorGGA07TfDoAhjMhcmNGXiEyLGX2JyLS4TISITIsBjohMixcZCsWXEIxuAWhFd6CfFx6IzjAGOIMElqJbaO0KoH/fUhEiOms4RdXbUfAWrWhjcCMyBQY4IjItBjgiMi0GOL3ULvaamlEsWRIRnT28yAAAOzJCiy+wd7EbgXu8bkpkFhzBAYDDg3uBAALvv0QwJPN5DEQmwQCnZ2tG094ulFr3g4iqggGOiEyLAY6ITIsBTs9hxzm8hbJT644QUTUwwBm0o7/rHF4sBhEMLiFR6+4Q0bFwmUghVz8CvFWLyBSY0ZeITKvhM/oyIzCRefEcHBGZFgMcEZkWA1w1xGchST5EFCDz1AdJmkWscB8lAp8kQZrZV1I/4rOQBiMwTtpjmJWkIttrKYPIYPa7VPvne1qt3qWwErLA8ngDwAYmgxb0rdXHzXuptT5Yghb19Xij0tp1+7lOEgMc1UxsppqByfxsN55ABASUy95ad+XM4DKRarA74QHQYgesLW1ApxPOffv0YjHZW4POHZcbI8kkRmrdDQMrWt4DPBfUb9nZCaDFWqW2bWh9B/A2twIAWpsAnLdVqe1aMuvnOoSognQ6XbP6tTx2uTYfOoTDob4GIgXHi4WE4+GmSEcGSuyzKUKOfH31NSDCO0IIkRbhOw4RiumPkS3Ttb+vXp7+uA6HQzjuhEW6WNnDzf0f7IC205EBMRBJGz57KFbimEWPYfzc+763Q8XFF+PjYnwpXmG9cqyLiXEIZF8zy0LJlSlieaZEWWxCYGldKLI3V+6VFUPL+jKMT4j1IkdXZK/AUrGSgn4V3aexMMCdQoDL2nxYIsDpf9yxkHA4QmJTVydXthMWA7pAkQ1w+gCwf39d4Clou+h7XYDLHSUysD/AHdJ2Nohl+5WODOxru+j3oftc+TI12OU/dzlOKsCpQaQwMGUp8oRYTubeieUZ3b6xCWPgiU0Yg1jBe0X2FgRP3fYiwWt9SR8Q1X5OVPSdmQ/PwdWDzjkk7rvVv10d8OMl3igAEMPzacB/TSuzd8DTCbx8U3De6sEqFnvUKZr7mh/4yxtkAGT+LAPzk+jNpih2fYK5zik8jwNABpGFKfijI3AfocsHt72/X9afeuB5to3tchpXnkPGHCZ7stNONz6Z92Dqq0ou0LSjPxBA4HZ1E5im1j7HWNMy5m8Un97ZbozipiP3Dtff9SK8u5XfoWkZyu0r6t+u65hAHFvavc8b/2UME12juJJr61NM7D3BH8u8N/rK7Xxd4AquXwTiafNfSDgIz8HVNSecncDwVzGMuNzqD/+ZB55x4/mmXAAEANcIkgvqn7HXMuRpGdKQsVX/4PF7tn2CbUPZhvxsCrI0bNz+4G4VGj+erd0w8M6nKHn2amcFfYu3ENZvu/hpGS2nsPU9MBa1YCyq3+7Fcrmdi0/CEh0zbPI2l1vZnBjg6pp6Mh3T3ZCm1S2e+UR+1FQGz3wiN4qqtpNsG51zSCz04oRaP7LWZi+wW6p0A5OLt4DLCoQ2wkut9cFecv/9JroERo9yL/TOCvqiY4b6G48t+PwITZkJp6j1TIng0bQfq8kkktqrkoDivuaHPDSKSNEUxWrwzE37lAh8XVNVars8zgseyGvP96+vc3XA/2wYo8daQpLAUjCI4OPq5oSx/aQP3ldXMRkvvY8re3VyZwVD34RL72hsGdff9WIsOolKV7jledGaHVrGJ3H1VYXVd2SEgkFTpe1ngDtx2kJZSUL3NCAPtUMqd2GqvRd3H0yhW6uffZW9dsw1gmS0DcOX9PXzi5Dd91fhn+5Wt1/axt3NOXhylbXFtJKE9iFZHUXqFyof0nY5rD2TmMMw2rP1c4ug3RhJrqJN+66yr9kDgsqpcdzEE98y4lFLftFtaEULCFfwi8tejGXLFrfQV8GaNduNJ1Aux3E1WKxtbaFu0AL7N2Hg1VXjgl/HTXx6MYxbi1q9P7Vi+WKln82FHzcBMFHa/qpkE8lkMrBajz6ZOE79Wh77xCkR+C5t425SdyFAicB3SYZnc7GiqSpRORKPg1j9/gMM3vOUPs94hvAcXD1TtiED0J9az/xZhow23GVwo2qKLyEY3QKazBPcAI7g6nsEB/V2pu5p/RY/VpNHW9pB1Gg4gqtz7vtJJO/XuhdEZxMz+hKRaTGjLzP6EpkWl4kQkWkxwBGRaTHAVUM5GX1rSO1TGQtli2b0LZMSgc/wuXWZdrVsxnWxUJcaCgPcmafecdBwweMzC2DRXh+v1Lo3VKcY4KrB7oQHbQdn9K0ha88ikskkRk71gdZqJpS2Fitgb0EbPHBWa3Hy15MA1gEhAKEAuAV8dvQ7OMnEqpFUjgkvyzhOQRZbQ/JGQ2bcwoSWAyK8o89uW5AMs0hm3MJEkaWy+RbrlzEpZT6h5v6y/f02JM8sS5WSUq54hfho+XhtkClxBHcKMk99aB9qM2QFyY+mYpj9qiO3PRn1Y6pLfy5LxvClR3BuJpFMJjDXOYVH2s327vvZbYA/WizjiPo8hWRyFf5iHYvPGvsVNe6VefolMJ5tN4E56DJ8AM4tzgAAIABJREFUKBH4ul5iblMrN9yoT1QfeCfDiYvhyyEZ/uhiidur3BjR36ng6oAfj/BGAdzalM4fzd5Yb0XHDQ+GX28Dx86Uls3omyx525e1ZwT5x+QYjx377TBQYW66/drRHzhmxt3vVoCbYWDjyfHaIVPiCO6kKW/w8pDzT7EZfcqhbpSfle2EZZ/lKunSJtWVDcB5C1hRgJ/Vui9UjxjgTpq9BW0HFGee+tBtSGpZYjp56mKYvaSO0rJT38R8PU1CNwDLVeBX68DPzZL7gqqNAe7EudHxQMbw+AHry3RXXWMzlY7gCjLzHrVeiYy+bdnnjSoRjOpGcMZsvGowrHx8d9Ssu7rg9g9XDt+dGhYD3Clw309i9T1d5lrdoldrz134n+XLHl2Yq3gEZ8jMq8/4G5/VTXtlLfuuL5dm/OCMvtqTrLqkXLlHN4IzZuN9BOfmKY48f6M9aeCXV/Nr4SwW4OvT6gCdFcwHV+f54Ijo6DiCIyLTYoAjItNigCMi02JGXyIyrYbP6EtE5sUpKhGZFgMcEZkWb7bXJB4HsfoKwMVuBG4f8wZwIqoLHMFp2m8HEAgM4oPvV7HUaNlxiUyKAc7ABte7TXibTtW6I0RUBQxwRGRaDHBEZFoMcAVs589h79s4OEklOvsY4Aq5+hH4cBcLwSBCawxzRGcZl4kUSK2FsLB7DYFAf627QkTHxBFcEU3N1XqAJxHVEgMcEZkWAxwRmRYDnEEK8W/3cO48n9JEZAa8yKDJ3Yva9AEGXYfuTkRnAAOcpv12ALzFnshcmNGXiEzrzGf0JSIqhRcZiMi0GOCIyLRMdZEhdyUUYGZeIjJXgMteCVXvJ611b4io1jhFJSLTYoAjItNigCMi02KAIyLTYoAjItNigCMi02KAIyLTYoAjItNigCMi02KAIyLTMtWtWsZ7UWvaFSKqA1VJeJnJZGC1WmtWn4ioGGb0JSLTqouMvkREJ4EXGYjItBjgiMi06uoqau4qKLPxElEV1MVVVKMU5NACdj8MoJ8PYCaiY6jDKaoNrneb8DadqnVHiOiMq8MAR0RUHQxwRGRadRngbOfPYe/bODhJJaLjqMOLDJr4EoLRLTRdHsS9G7bqtk1EDaGulolkqc81vYZAoL/WXSGiM6wuAxwANDXbi27PrpVr7eIyEiI6WF2egztI+/utAMBlJER0qDMX4GBrRhOAc+d5Xo6IDlaHU9QU4t/u4dyHhQFMvcPhxR6np0RUnrq6ipq7F7XpAwze84BjNCI6jroKcERE1cSMvkRkWszoS0SmdfauohIRlYkBjohMqw6XiSB3HyrQiu5AP5jbl4iOog4DXAJL0S2udSOiY6u/KeqOgrdoRRuDGxEdU/0FOCKiKmGAIyLTqr8Al9rFXlMziidLIiIqX/1cZNiREVp8gb2L3Qjc43VTIjq++rsXNb6E4J+aebM9ER1b/U1Rbc1o2tuFUut+ENGZV38BjoioShjgiMi06i/AOew4h7dQdmrdESI66+rvIgPAe1GJqCrqM8AREVUBM/oSkWnVRUZfZgQmopNQfxcZiIiqhAGOiEzLRAEuhllJgu9pBlAi8EkSZuMH7D2j7VsnMk99kA7pc321nUFkUII0E4Phu6+S1FofLMFJbADYeGyBJbSCVHk1sRKyYPIEvseyjr7WB0vQor4eb9Tg2Ef5zszLRAGOqPZsN55ABASUy96jNRCfZGCqovrJJnJsTjg7AbRYAXsL2uCB8wzlXLL2LCLZc5batqLlPcBzwQkA+e++SmznXUBTK1oBoNkLoJXJFw7B76wIUQXpdLqm9cs8igjfcQiHI/8aiOiOGwvpygZEeKegdmTAUDcUK2jeUF/ftnrcUEyIzYfF2t8UoZLHTYvwnQER3tHvExKbhZ+sZN8Oalvb46GjxOcu79iHiS+Ni/HxL0S8wnqHU8TyDATGs68Jsa7bPhFbFxP7yjTJZeEd19VdWi+zbdX6kr7MK5aTRXone4u0K4SITejqQkxk/10V9qnosQv6Vax9MmiYALf50CEcDzcN73NBaCcsBvQ/7ljI+GPeCYuBg37csVDJAKIPrNnjFfZF65EIFQ1wxsBTWFcNbocFnmJta3XvhEVa/z7XVuGx1feG/ymU4WQCnPZDL/oDzwaBbOBR33tlRStXA18usGjv8+UHta0FrplloejfFwZQUSrArYsJ/bbYxP66sQlD+4baS/p+FX4uKqYxzsEpETya9mP1vrtocebPMjA/id7slNb1CeY6p/DccKK68H2uNiILU/Do6xfzYBWLPeoUzn3ND/zlDco9Je+PLubaNtaN4cshGf7oCIp/soNodQd7kZ1YWnsm933u/LGt6Ljhgfx6u6KjtN8OIFDt2+3iv8atvQms375ScpeJrie46QAAG66/60V4dwsAkFr7HGNNy/hF7qFGVzDaNYHwt39Uz3sd2PYGfv1NGBMf3sxN/Ww35rHcNIY/lnVR4wpG9e26rmMCcWyVdd/1Bv74St8vG25+qOs3FWWic3BHt/1ahjwtQxoybvcPan/Ye7EY3YbUJWEKADrnkFjIBoZtbD8D2gYPPv/kv6YLQa4RJBeO0eFn29gGYFXe4CU88Bz5XOPZOk+ZlUrHgaY+9VzTUbxT+tzU4W170XqME1sbjy24+srY3nI5FXe2EMcYxoJjxu1NZdVuWAxwGs98IjfCKso1gmRyBIC6xKR9EFqQUy9uVDauOaZOJ5yAdjHlOGRsK0D+ARhqsMZg6Rr1wHbeBXx7jAa+30IKV3JBLpWOA1pIO7ztMLZSABzZ91vY2ivvsKm1Plx9NYH1wCjUcdgGJoOfV9BxfV0qR2NMUe0taNNNMTNPfeiezhe7r/khD40iUmYaYecFj+6dOnWb6ppFrGodLiWG2a4peG50aKNHNzoeyBgej5Q93c1zo+MBMLWQr5t5+ghTnXP4pIrPpE08DiIYXEKiek2qU7u9Wxhaq3xyZvtJH7x7t/Dr3JSyYNp5YNtXcP0iMPan/DKO/VPeQ2SvcgLYeHwVY4XltlZ4957gj4XTVsd19DWN4eox19ap/z6CWKrROsHT1iAjODdGov78FPPBKhLzwGi22DWCZHQW0iUJw7k6fqwm1XNbmac+tA/Juvb8WE3qz10tIgEf2iUpt8ehI8Ks+Cykrqn8+0sShuHB3Gb+vNtUtt9F2nXfT2J1RkK7pOt5NIkR1+Ft769r/Fz16wpGA+uYDNph+Sa7rczRjeMmnviAvkULLFF1k/eygif6c3IHtH3ltsD6YwvswVu6suw5uRRWQnbcyo3owrAEAVxch7h9BbYbn2Lim6u5ut7Ly5h49WRf/+YvP4F90YJbhmPbcPOeAoTsapvQ9f1G+XPm9vdbsfpqC2/TKaABFpHURbokplsqJYPIYDu2B7WARXRc2tPrznUF0N8A/001yAiOqNGlIIcW8GIPaG2Q4AYwwBE1CBs89wLwHL6jqTDA1TUreheSte4E0ZnFjL5EZFrM6EtEptUY6+CIqCExwBGRaZkowJWT0VfdRxo8ZOW/EoFP0t+ZUFm2YCKqDyYKcGfUdyuAxZJ/fbxS6x4RmYaJApx603vbgRl9///27i+mrSvt9/gXRb07F6QHEWOXqLSaStWI8wqTzDSJmiNFei/iQ1BClDmdROHmhRIpiESjVr4gb42ncIGoJhgRKRGaiyEinZkqOIK8js5NpdNRIJ1io3OiVyO1J6UKdWxQNOG+qva52P6zt23AgMH25veRrMBee6+9jJRHa+211rNb6YvHid/Z6nakYurepjcugmFkP82X4NO9zeUv4lT7ZquWbT/pxzPEc3PD5e7btOxFLc4ik8EZlt5qJ3B5B9nPPj8P/+8j+HfljBDZKQf14DZWf3aCeDzO4q0Ca7kTYbrPPGV8IU48Hie+MF6mFd9JCE/Dvyq4iZSCdjIA0b/0wq3FjTPybqqFzsA2e25PhuBYKnHOhSl4byftEJG0fdODq2jv9Wefwf1uCWqGyt0iEUdQgKs0750CYvBjuRsiUv0U4DAz9EYePc68yGXsSC+RTa7Jt8hkMEjw7g5z137+GVw4D29YDyaJhIIEgyEiRb2gRERg3wS4VcI9HjwejzmTOtKOx+PBM2ou5a0/O8Q4vbR4PHg8t2lcmMG/V017MmRfBxc+D3+9mHOSC+87tcAaL/UKJZGi7ZtlIlUvNklw9hVHu6/hc29+uohoFrUKpNbXUavgJrJF6sGJiGPtk2dwIrIfKaOviDiWMvqKiGNpiCoijqUAJyKO5aAA59Csu7ExPJ5uwgkz5ZPHlmm4FPVPEgwGUx/tlBBn0Tq4PbFKuKeF5Z44fZX4RvHao/Rc8+EqdztESsxBAc7MustuZN0tp4ZGfMDhBqg/3AxtjTSWu00i1cIogZWVlbJeX4yFm26jK7xirIS7DLfbbbjdbiMUtZwQDWWOu91dxvSLvBqMUKbcbbg/nDayrV4xpj+0lN1csN3X7c7/dIUt39l275x2FSP+H8bowIAxGkls8ULDMKJ/MgZG/8PYxpUiFc9Bz+A2F7naQssPVzKZfYfvpN6ulZvRd7aZ3iO5b9Vq5+mtRbM8570O0dEWet+dSZUtMv6PdvNZINB6PXWsDfyz8cz1E2frs3V/dSJb76yf4TMlfs4msk/tqwBH2ziLqXcx1P/ah+/hMsvA6tcRuDWUzejr/YDxtmEepyYpVh/cZrhtnKGzhbaTRXk84mcm846Hes71+C3plzbTSp/1/RDeE/h5yvPEFr6X28e1QIBrp/UUTcTKQc/gNuc7fSL7Nq2Gc0zEzR+jP0SIjETwXLWf7+8x/13+IQLvXin8Jq7Ec54yzLBn2H68bbzodkVHPbSP2FpK8VeLyHr2VYDbiO/WomXYaNf4pg9+2Ojqrb6BK2v1QTftI9bro4x5bm+jJhHJtb+GqOtoPekncrWf8DrDwvpf+/CNtBdeV9dwAl/bMO2jGz01q+fwuzD81TrnWGZGo6PtDBc+a30vIoSCQUKPlA1TxEoBDsDbl5pYMLP+mh/Lg/6Gc0wsjPP0jKW8JzVBQT3n7pgTC9lrPZlJhrTW6zP4R9rzyuvPXsH/MJ1N2MPtN8f3LpuwiMMpH9x+F5sk+Lc6LfQVR1IPTkQcS5MMAmvfcCf4DSgtujiMhqgi4ljK6CsijlX1GX2VDVhE1qNJBhFxLAU4EXEszaLmik0SnF0CmmgPdNJS7vaIyLYpwNksMjm7RNOZAJ2VmHlXRLZEQ1SrFwle0USzgpuIIyjAiYhjKcCJiGMpwFklX7JWW4cT3lUjIppkML2IEJr4hrW32glc07ypiFOoBweZdxoEfvmUYCiC0kaKOIMCnJWrjtq1l2zlfS8iUrkU4ETEsRTgRMSxFOCs3A0c5BWJF+VuiIiUggKcTQudZw7yzUSQYHCSxXI3R0R2RMtEcnk7CWirlogjKKOviDjWvs/oq4zAIs6lZ3Ai4lgKcCLiWApwpRAbw+PpJpyA1QfdeDxjRHPPSYTp9njwjOaVVI7YGJ6eMPZBe5Qxj6fA8XJaJdyT/lua7et+UKrWJbkXqqHm7jwwz1CwhvOPit28Z147FCtRU7Zo/m4NNUHzU3ybS2Enf7PdpQAnZRMdLWVgkmOXDYyAwdxb27t+/m7lBKZS0TKRUmhoxAccboD6w83Q1khj3jnnmIifK0PjdqqVvnicvnI3w6aew++C703zr9zYBhwu1YvDXTS9Dh11TQA01QKHXCWq26kq+G9mlMDKykrZri/nvYu1cNNtuN3mpyucc79oyHDfXDBWwl3rnLNghNzZ681PlzH9wjAMY8WY/tBthKLWe6TLLPXnXZdlva/b7TbcH04bK4XKbi7kf7EN6l4Jdxld4RXbdw9F17lnwXvYv3fe321TMeNPAwPGwGRsi9cVY84YHMAg/RmdMhKGYRhGwpgaxRiMWssHjTnLlYlIR/a6AYzBaLF1b1ZmqWESoyNSoCQ6WPDeuW3KfCatLbffu2D9FUgBbg8CXNrCzXUCnPU/dzRkuN0hY8FyTabsxbTRZQkU6QBnDQD551sCT07dBX+3BLjMXcJd+QFuk7rTQSzdrpVwV17dBf8elu+VLTODXSgvGGxktwKc+R+98H9wM8Ax0GFMxbO/Z86NDtoDXnTQcm5xdWfLUveyBaFULQUD3JwxaD03ty3rXlfo3mY784Nz5dEzuErQNs7i9VbzZ+8J/DzleQIgyuMR8J9MlTWcwNcGT5/nPLf6eIaJs+YQrfWkH/7xnFVg9esI3BriXDpFsfcDxtuGeRwDWCV8Zxj/bB+t22jyxnXnt6v+1z58D5dZLqbyxGMijDN0Nj3sbOWDWz6Gv9rKBE0LnYEAgculTWCafPQZN2qnuHV6/SHY4Jn7XHQDuDj1TgfTL5eAJPf+doOOX/0bx9InevuZe2ua+/8nuXndsT9yaW2QjzJlLi5emKLj+y+ZL6rlx+i/fCz7q/cUg8RYKmbf9YsvuY+1Xcf4t191cOM/i7tzOekZXEVrpLENer+K0udtNf/jP/ThG7A/b8oEQABvH/E75o/RHyJERiJ4rtpr9ffsvGXLu1g3iWUiD4eJeHrtxz++UoLKd2bp5TS8/hHbfcLk3eDZ1KZ11zbRtM37gjmJcPx765EOpoq5MLnE9NoNpoOX7Mff+mgHrdkbCnAVzXyYzkg7nhHziO/WYrbXVATfrcVML6rUdrNu2sZZvHOOXap925rqOuDl9q+PrSQhE8KSLP0TqCuy7rUllixXk1xiGigmzCQfnef494PMBfpTPch5hoKfFd/w2ikS1y5uO7CXi4aolSwR5vaIn5l4nHjqs5WA0nrST+RqP+GCKYrN4JkZ9iXCdJ8ZLlHdxWl800fk0eP89XXeE/gf9tK/oyUki0wGgwTvljYnjOtfztPx/fFtrHVLDVf//sfskDJn2Llh3d5TDHKDzzLLOAoMeTdj6QHO3z3OjZziproOpr/9Mj9lv/cUg2uXuLqjJSRJIqEgwWCIyB6mI1OA23WphbIeD+0jELnagqfYhakN57jy8TDtqevTn6LXjnn7iM8203vEen12EXLr9Rn8I+3m8SPLXFkYx5e5OLWY1uOh5WrE7EVaFypvUncx6s8OMU4vLenrM4ugW+mLz9Cc+lulP2NlWkBr477I/e4pYrPZRbU1oXtFvcfDdfo+iV/FOJ6+bjbGVHd/NkBtWPcx+gNzeP/ekCpr4NLrc9zPPBczF9jWBM1h6HTqvPS6Ntfpjxhcu0RD6pzP6qYYzGvfLabInmMu3C10b/OztSDvwvtOLbDGyz1caleSbCKrq6vU129/MLGT68t5712XCNN9ZJkrcctEQCJM95EIvoWJLQ1VRcouNklw9hVHu6/hc+/NLfUMrpIllokA1kfrq19HiNDMFQU3qRqLTAZnWKJ2T4MbqAdX2T04zO1M7SPWI35m4ttb2iGy36gHV+Far8eJXy93K0SqkzL6iohjKaOvMvqKOJaWiYiIYynAiYhjKcCVQjEZfcvIbFMRC2ULZvQtUiJMt+17WzLtprIZV8RCXdlXFOCqnrnjYF8Gj8/PQ00NPMktSMJvasyymhr4tPKzXsjuUIArhYZGfDRvnNG3jOrPThCPx+nb0xdam5lQmg/XQ8NhmvHRWLLFyakAxvnCxZ82QPMcGAYYc/DJcfjcWam4pUilSCqnhJdF3Ccni60teaMtM25uQssuY/qFNbttTjLMAplxcxNFrpfNt1C77Ekpswk188vy221LnlmUbSalvNdhGPOGYRhzhgGpn1OWpwyDDsNYzjn/wtTW7iGOoB7cHlh90E3L1WZbVpBsbyrK2FcnMsfjs36Gz1ifZUXoPXKbxoU48fgi423D3E5ttm+9nj4G/tlCGUfM9ynE4zP4CzUsNmZv16z9rNUHf4aBdL2LjGPJ8JEI033mKeMLqXLbRv1d9tv78N46ZT8uwYXz8Ebq9ydDcHEavljaq9ZJBdFOhl0X5c9XI/hnJ9bZXtVKn3WngvcEfm7zPAGtqSGdfza9sb6eE6d99P6wDDvOlJbO6Btfd9tX/dk+sq/Jsd87+pde2GJuunwtdAZKm3E348d70HgJGDSHqTWfwY9kA5/sC+rB7bbEc55u8vwpOmpNOdRO8VnZdln6Xa4eS9qkavDFJWhcSj2D6zd7dXgV3PYhBbjd1nCY5g2KVx90025LarnOcHLPRRk7YvbS0kPfxVt7NgjdvjeagA5Y7s8e+3EJLuwk2bdUKwW4XdfKiY8j9A5ssL7MMusaHd1qDy4nM+92r1sno29z+n2jiTD9lh6cPRuvGQy33r/bhay7b5yCC9Pwu3upA0n4ww04d6p095CqoQC3B1qvx5l515K51rLotf7sFfwPs2W33xzfcg/OlpnXmvE3NmYZ9kZS2Xe7M2nGN87om3qT1RlPptxn6cHZs/HepnFhD3ueT4ZSa9yOm78fq7Gsh3PBXxPApdQ5DXAuAb+ttrcJSCkoH1yF54MTke1TD05EHEsBTkQcSwFORBxLGX1FxLH2fUZfEXEuDVFFxLEU4ETEsbTZPmXxbpCZ74G32glc3qUN4CKyp9SDS2m5HCAQ6OHoP2eY3I/ZcUUcSAHOxoX3nVperSj7q4gTKMCJiGMpwImIYynA5XAdOsjatzE0SBWpfgpwubydBN5/yZ1gkNAjhTmRaqZlIjmSj0LceXmSQKCz3E0RkR1SgCugtq7QCxSSREJ3+GatlqPd1/C597xZIrJFGqIWzVxCAmu81MhVpCqoB7cFrkMHAahT9muRqqAAZ5Mk9u0aB9/PjWCLTAZnWELDU5FqogCXktmLWnuUHm9u6S6+oFhEdo0CXErL5QAKYSLOooy+IuJYyugrIo6lZSIi4lgKcCLiWJpkyBWbJDi7BDTRHujUxINIFVOAs1lkcnaJpjMBOvOWiohItdEQ1epFglc00azgJuIICnAi4lgKcCLiWApwVsmXrNXWUShZkohUH00yALyIEJr4hrW32glc07ypiFOoBwfg9nEtECDwy6cEQxG9j0HEIRTgrFx11K69JFHudohISSjAiYhjKcCJiGMpwFm5GzjIKxIvyt0QESkFBTibFjrPHOSbiSDB4CSL5W6OiOyIlonk8nYS0FYtEUdQRl8Rcax9n9FXGYFFnEvP4ETEsRTgRMSxFOBKITaGx9NNOAGrD7rxeMaI5p6TCNPt8eAZzSupHLExPD1h7IP2KGMeT4Hj5bRKuCf9tzTb1/2gVK1Lci9UQ83deWCeoWAN5x9ZNu+9uMf5YA01wRpqgkPMl+iuAMlH51P33cH1qTbN362hJnRv3287VICTsomOljIw7RH3Re4HDIzuKTrK3RbZlJaJlEJDIz7gcAPUH26GtkYa8845x0T8XBkat1Ot9MXj9JW7GTb1HH4XfG+af+XGNuBwfYnqdtH0OnTUNQHQVAsccpWo7t3lOuSF2iaaAOo6gCaqo+W7yCiBlZWVsl1fznsXa+Gm23C7zU9XOOd+0ZDhvrlgrIS71jlnwQi5s9ebny5j+oVhGMaKMf2h2whFrfdIl1nqz7suy3pft9ttuD+cNlYKld1cyP9iG9S9Eu4yusIrtu8eiq5zz4L3sH/vvL/bpmLGnwYGjIHJ2BavK1J8yugYGDTm8goSxtQoBgOpz2TuGTnlljoSkQ6DyTljbjJbPhjdSt2SSwFuDwJc2sLNdQKc9T93NGS43SFjwXJNpuzFtNFlCRTpAGcNAPnnWwJPTt0Ff7cEuMxdwl35AW6TutNBLN2ulXBXXt0F/x6W75UtM4NdKFrg1HWVJ8DNTVoDjxmQOiIJ2+/rBaZEpMNgIHt+ItJhMDplpK/euG4pRM/gKkHbOIvXW82fvSfw85TnCYAoj0fAfzJV1nACXxs8fZ7z3OrjGSbOmkO01pN++MdzVoHVryNwa4hz6RTF3g8YbxvmcQxglfCdYfyzfbRuo8kb153frvpf+/A9XGa5mMoTj4kwztDZ9LCzlQ9u+Rj+aisTNC10BgIELu9lAtN5vvx+kLnLx1K/u7j4/iDT335pPuyP/ZFLa9byAt6a4/5pc2Dp+pfzdKwtsVRM3VKQnsFVtEYa26D3qyh93lbzP/5DH74B+/OmTAAE8PYRv2P+GP0hQmQkgueqvVZ/z85btryLdZNYJvJwmIin13784yslqHwXvVgixg1uBG/Yj9dOAZBciUHtefMZWYnrlsIU4Cqa+TCdkXY8I+YR363FbK+pCL5bi5leVKntZt20jbN45xy7VPsuGmQu0E/BPtohL3y7S3VLQRqiVrJEmNsjfmbiceKpz1YCSutJP5Gr/YQLpig2g2dm2JcI031muER1F6fxTR+RR4/z19d5T+B/2Ev/jpaQLDIZDBK8u4c5YdynOF97g+PrrWXznmJw7RJXH21jULlZ3UVavBskGAwyGdv8XCdQgNt1qYWyHg/tIxC52oKn2IWpDee48vEw7anr05+i1455+4jPNtN7xHp9dhFy6/UZ/CPt5vEjy1xZGMeXuTi1mNbjoeVqxOxFWhcqb1J3MerPDjFOLy3p6zOLoFvpi8/QnPpbpT9jFfCf0lxMW0PNxCWmucFx24JfFxevJZj65/HUQmDzk10ofIz+wBzevzdYyotdLLxZ3cVp+aU5QH61sj+e3JUkm8jq6ir19dsfTOzk+nLee9clwnQfWeZK3DIRkAjTfSSCb2FiS0NVESDzBrmDZwJ07oO0YHoGV8kSy0QA66P11a8jRGjmioKbbEmSSOgO36xB0z4JbqAeXGX34DC3M7WPWI/4mYlvb2mHyH6jHlyFa70eJ3693K0QqU7K6CsijqWMvsroK+JYWiYiIo6lACcijqUAVwrFZPQtI7NNRSyULZjRt0iJMN22723JtJvKZlwJC3Vlf1GAq3rmjoN9Fzw+rYGa1Oc393IKk/AbS/mnuXsF5rNlNTXw+f5Y1b8fKcCVQkMjPpo3zuhbRvVnJ4jH4/Tt6eJD0r5tAAAG/0lEQVROMxNK8+F6aDhMMz4aS7U4+ckQMAeGAUYCuGQPYp82QHO6fA4+OW4JYkn4zXG4lzDLl6fgYgM8KVHbpLKUIqmcEl4WcZ+cLLa25I22zLi5CS27jOkX1uy2OckwC2TGzU0UuV4230LtsielzCbUzC/Lb7cteWZRSpSU8l6HYVyYMn9enjIMOgxjeZ3y+UHDYNB+/e8xjN8rO64TqQe3B1YfdNNytdmWFSTbm4oy9tWJzPH4rJ/hM9ZnWRF6j9ymcSFOPL7IeNswt1Ob7Vuvp4+Bf7ZQxhHzfQrx+Az+Qg2LjdnbNWs/a/XBn2EgXe8i41gyfCTCdJ95yvhCqty2Ub+MflyCC+fhjdTvT4bg4jR8YaaNZCkGvz+VPf/z8/AJ8HRpr1sqe0A7GXZdlD9fjeCfnVhne1UrfdadCt4T+LnN8wS0poZ0/tn0xvp6Tpz20fvDMuw4U1o6o2983W1f9Wf7yL4mx37v6F96YYu56fK10BnYYcbdH++ZAWz+fv7xxkvAoDlMrfkMfrSUPxmCYzfgwhQsn4dGBTgnUg9utyWe83ST50/RUWvKoXaKz8q2y9LvcvVY0iZVlHkziN1LwHuWw19cMgOWYYDRb/bq8GZ7dZ8chz80meV/vZjq9W0rz65UOAW43dZwmOYNilcfdNNuS2q5znByz0UZO2L20tJD38VbFTEITZmHmuPw+zn4reXleG80AR2w3J89Zg1gTV5g0AxsaUsxaFaAcyIFuF3XyomPI/QObLC+zDLrGh3dag8uJzPvdq9bJ6Nvc/p9o4kw/ZYenD0brxkMt96/227WXUtw+/ecBN5vnIIL0/C79NKRJPzhBpxLPXd77xRwwzLrOm8Ocf9VicCdSAFuD7RejzPzriVzrWXRa/3ZK/gfZstuvzm+5R6cLTOvNeNvbMwy7I2ksu92Z9KMb5zRN/UmqzOeTLnP0oOzZ+O9TePCHvY8P//M/PeT4/b1bE8AXPDX1NKRmhqoaYBzCUsv71h26UhNjRko5w37EFccQ/ngKjwfnIhsn3pwIuJYCnAi4lgKcCLiWMroKyKOte8z+oqIc2mIKiKOpQAnIo6lzfYpi3eDzHwPvNVO4PION4CLSEVQDy6l5XKAQKCHo/+cYXK/ZccVcSgFOBsX3ndqebWiFNYiTqAAJyKOpQAnIo6lAJfDdegga9/G0CBVpPopwOXydhJ4/yV3gkFCjxTmRKqZlonkSD4KceflSQKBznI3RUR2SD24AmrrSvUCTxEpJwU4EXEsBTgRcSwFOJsksW/XOHjItfmpIlLxNMmQktmLWnuUHu+mp4tIFVCAS2m5HEBb7EWcRRl9RcSxqj6jr4jIejTJICKOpQAnIo7lqEmGzEwoKDOviDgrwKVnQs39pOVujYiUm4aoIuJYCnAi4lgKcCLiWApwIuJYCnAi4lgKcCLiWApwIuJYCnAi4lgKcCLiWApwIuJYjtqqZd+LWtamiEgFKEnCy9XVVerr68t2vYhIIcroKyKOVREZfUVEdoMmGUTEsRTgRMSxKmoWNTMLqmy8IlICFTGLapckErrDy/cDdOoFzCKyAxU4RHXhfaeWVyvJcjdERKpcBQY4EZHSUIATEceqyADnOnSQtW9jaJAqIjtRgZMMKbFJgrNL1P6qh2unXaWtW0T2hYpaJpJmvtf0JIFAZ7mbIiJVrCKHqAC1dQ3lboKIVLmKDXAiIjulACcijlWBAS5J7Ns1Dh7SxIKI7ExFTTJk9qLWHqVH27REZIcqd5mIiMgOKaOviDhWBT6DExEpDQU4EXEsBTgRcaySz6ImH4W48/c185fao/Rc86EFHyJSDrs3yRCbJPi3OgU4ESkbDVFFxLEU4ETEsRTgRMSxFOBExLEU4ETEsRTgRMSxFOBExLEU4ETEsRTgRMSxFOBExLF2eS9qXamrFxEpmhJeiohj2Xpw3333Hclkkp9//hmAAwcO4HK5+MUvflGWxomI7ESmB/fdd9/x888/8/bbb/Paa68B8NNPP/Hs2TMOHDigICciVSczyZBMJm3BDeC1117j7bffJplMlqVxIiI7kQlwP//8sy24pb322muZIauISDXJm0XNzIIqG6+IVLm8dXCu09cIBAK0v/4Nf3mkoamIVK91F/q2/LKJtZeJvWyLiEhJaSeDiDiWApyIONb6Ac5VR+33T1ncw8aIiJTS+gHO7eNadx1fBYP87/+ryQYRqT7rB7jYJMEv4H8GAvz3/6bFIiJSfTZ+Bvd6g9bBiUjV0iSDiDiWApyIOFYmwB04cICffvopU7D4n0vU1jXw008/ceDAgbI0TkRkJzJ7UV0uF8+ePeO/PPtf/HFhDWjif3zwX3n27Bkul57EiUj1sWX0VcJLEXESpSwXEcfSJIOIONb/B3tGgYCIV883AAAAAElFTkSuQmCC;" parent="1" vertex="1">
                    <mxGeometry x="130" width="390.47" height="1040" as="geometry"/>
                </mxCell>
                <mxCell id="wPz8ffhpFI3xmUe8NB3q-26" value="" style="endArrow=none;dashed=1;html=1;dashPattern=1 3;strokeWidth=2;rounded=0;entryX=0.5;entryY=1;entryDx=0;entryDy=0;fontSize=21;" parent="1" edge="1">
                    <mxGeometry width="50" height="50" relative="1" as="geometry">
                        <mxPoint x="3068.89" y="340" as="sourcePoint"/>
                        <mxPoint x="3068.89" y="210" as="targetPoint"/>
                    </mxGeometry>
                </mxCell>
                <mxCell id="wPz8ffhpFI3xmUe8NB3q-47" style="edgeStyle=none;rounded=0;orthogonalLoop=1;jettySize=auto;html=1;exitX=0;exitY=1;exitDx=0;exitDy=0;entryX=0.783;entryY=0.056;entryDx=0;entryDy=0;entryPerimeter=0;fontSize=21;" parent="1" source="wPz8ffhpFI3xmUe8NB3q-31" target="wPz8ffhpFI3xmUe8NB3q-35" edge="1">
                    <mxGeometry relative="1" as="geometry"/>
                </mxCell>
                <mxCell id="wPz8ffhpFI3xmUe8NB3q-31" value="carta" style="ellipse;whiteSpace=wrap;html=1;fontSize=21;" parent="1" vertex="1">
                    <mxGeometry x="1647.5" y="720" width="120" height="80" as="geometry"/>
                </mxCell>
                <mxCell id="wPz8ffhpFI3xmUe8NB3q-48" style="edgeStyle=none;rounded=0;orthogonalLoop=1;jettySize=auto;html=1;exitX=0;exitY=1;exitDx=0;exitDy=0;entryX=1;entryY=0;entryDx=0;entryDy=0;fontSize=21;" parent="1" source="wPz8ffhpFI3xmUe8NB3q-35" target="wPz8ffhpFI3xmUe8NB3q-38" edge="1">
                    <mxGeometry relative="1" as="geometry"/>
                </mxCell>
                <mxCell id="wPz8ffhpFI3xmUe8NB3q-49" style="edgeStyle=none;rounded=0;orthogonalLoop=1;jettySize=auto;html=1;exitX=1;exitY=1;exitDx=0;exitDy=0;entryX=0;entryY=0;entryDx=0;entryDy=0;fontSize=21;" parent="1" source="wPz8ffhpFI3xmUe8NB3q-35" target="wPz8ffhpFI3xmUe8NB3q-36" edge="1">
                    <mxGeometry relative="1" as="geometry"/>
                </mxCell>
                <mxCell id="wPz8ffhpFI3xmUe8NB3q-35" value="0" style="ellipse;whiteSpace=wrap;html=1;fontSize=21;" parent="1" vertex="1">
                    <mxGeometry x="1417.5" y="830" width="120" height="80" as="geometry"/>
                </mxCell>
                <mxCell id="wPz8ffhpFI3xmUe8NB3q-55" style="edgeStyle=none;rounded=0;orthogonalLoop=1;jettySize=auto;html=1;exitX=1;exitY=1;exitDx=0;exitDy=0;entryX=0;entryY=0;entryDx=0;entryDy=0;fontSize=21;" parent="1" source="wPz8ffhpFI3xmUe8NB3q-36" target="wPz8ffhpFI3xmUe8NB3q-37" edge="1">
                    <mxGeometry relative="1" as="geometry"/>
                </mxCell>
                <mxCell id="wPz8ffhpFI3xmUe8NB3q-65" style="edgeStyle=none;rounded=0;orthogonalLoop=1;jettySize=auto;html=1;exitX=0;exitY=1;exitDx=0;exitDy=0;entryX=1;entryY=0;entryDx=0;entryDy=0;fontSize=21;" parent="1" source="wPz8ffhpFI3xmUe8NB3q-36" target="wPz8ffhpFI3xmUe8NB3q-57" edge="1">
                    <mxGeometry relative="1" as="geometry"/>
                </mxCell>
                <mxCell id="wPz8ffhpFI3xmUe8NB3q-36" value="1" style="ellipse;whiteSpace=wrap;html=1;fontSize=21;" parent="1" vertex="1">
                    <mxGeometry x="2357.5" y="910" width="120" height="80" as="geometry"/>
                </mxCell>
                <mxCell id="wPz8ffhpFI3xmUe8NB3q-75" style="edgeStyle=none;rounded=0;orthogonalLoop=1;jettySize=auto;html=1;exitX=0;exitY=1;exitDx=0;exitDy=0;entryX=1;entryY=0;entryDx=0;entryDy=0;fontSize=21;" parent="1" source="wPz8ffhpFI3xmUe8NB3q-37" target="wPz8ffhpFI3xmUe8NB3q-67" edge="1">
                    <mxGeometry relative="1" as="geometry">
                        <mxPoint x="3290.073593128824" y="1240.0042712474508" as="sourcePoint"/>
                    </mxGeometry>
                </mxCell>
                <mxCell id="wPz8ffhpFI3xmUe8NB3q-37" value="2" style="ellipse;whiteSpace=wrap;html=1;fontSize=21;" parent="1" vertex="1">
                    <mxGeometry x="2912.5" y="990" width="120" height="80" as="geometry"/>
                </mxCell>
                <mxCell id="wPz8ffhpFI3xmUe8NB3q-51" style="edgeStyle=none;rounded=0;orthogonalLoop=1;jettySize=auto;html=1;exitX=1;exitY=1;exitDx=0;exitDy=0;entryX=0;entryY=0;entryDx=0;entryDy=0;fontSize=21;" parent="1" source="wPz8ffhpFI3xmUe8NB3q-38" target="wPz8ffhpFI3xmUe8NB3q-39" edge="1">
                    <mxGeometry relative="1" as="geometry"/>
                </mxCell>
                <mxCell id="wPz8ffhpFI3xmUe8NB3q-38" value="descripciÃ³n" style="ellipse;whiteSpace=wrap;html=1;fontSize=21;" parent="1" vertex="1">
                    <mxGeometry x="1267.5" y="910" width="120" height="80" as="geometry"/>
                </mxCell>
                <mxCell id="wPz8ffhpFI3xmUe8NB3q-52" style="edgeStyle=none;rounded=0;orthogonalLoop=1;jettySize=auto;html=1;exitX=1;exitY=1;exitDx=0;exitDy=0;entryX=0;entryY=0;entryDx=0;entryDy=0;fontSize=21;" parent="1" source="wPz8ffhpFI3xmUe8NB3q-39" target="wPz8ffhpFI3xmUe8NB3q-42" edge="1">
                    <mxGeometry relative="1" as="geometry"/>
                </mxCell>
                <mxCell id="wPz8ffhpFI3xmUe8NB3q-39" value="id" style="ellipse;whiteSpace=wrap;html=1;fontSize=21;" parent="1" vertex="1">
                    <mxGeometry x="1417.5" y="990" width="120" height="80" as="geometry"/>
                </mxCell>
                <mxCell id="wPz8ffhpFI3xmUe8NB3q-53" style="edgeStyle=none;rounded=0;orthogonalLoop=1;jettySize=auto;html=1;exitX=0;exitY=1;exitDx=0;exitDy=0;entryX=1;entryY=0;entryDx=0;entryDy=0;fontSize=21;" parent="1" source="wPz8ffhpFI3xmUe8NB3q-42" target="wPz8ffhpFI3xmUe8NB3q-43" edge="1">
                    <mxGeometry relative="1" as="geometry"/>
                </mxCell>
                <mxCell id="wPz8ffhpFI3xmUe8NB3q-42" value="receta" style="ellipse;whiteSpace=wrap;html=1;fontSize=21;" parent="1" vertex="1">
                    <mxGeometry x="1567.5" y="1070" width="120" height="80" as="geometry"/>
                </mxCell>
                <mxCell id="wPz8ffhpFI3xmUe8NB3q-77" style="edgeStyle=none;rounded=0;orthogonalLoop=1;jettySize=auto;html=1;exitX=0;exitY=1;exitDx=0;exitDy=0;entryX=1;entryY=0;entryDx=0;entryDy=0;fontSize=21;" parent="1" source="wPz8ffhpFI3xmUe8NB3q-43" target="wPz8ffhpFI3xmUe8NB3q-76" edge="1">
                    <mxGeometry relative="1" as="geometry"/>
                </mxCell>
                <mxCell id="wPz8ffhpFI3xmUe8NB3q-43" value="0" style="ellipse;whiteSpace=wrap;html=1;fontSize=21;" parent="1" vertex="1">
                    <mxGeometry x="1417.5" y="1150" width="120" height="80" as="geometry"/>
                </mxCell>
                <mxCell id="wPz8ffhpFI3xmUe8NB3q-44" value="cantidad" style="ellipse;whiteSpace=wrap;html=1;fontSize=21;" parent="1" vertex="1">
                    <mxGeometry x="1417.5" y="1310" width="120" height="80" as="geometry"/>
                </mxCell>
                <mxCell id="wPz8ffhpFI3xmUe8NB3q-56" style="edgeStyle=none;rounded=0;orthogonalLoop=1;jettySize=auto;html=1;exitX=1;exitY=1;exitDx=0;exitDy=0;entryX=0;entryY=0;entryDx=0;entryDy=0;fontSize=21;" parent="1" source="wPz8ffhpFI3xmUe8NB3q-57" target="wPz8ffhpFI3xmUe8NB3q-59" edge="1">
                    <mxGeometry relative="1" as="geometry"/>
                </mxCell>
                <mxCell id="wPz8ffhpFI3xmUe8NB3q-57" value="descripciÃ³n" style="ellipse;whiteSpace=wrap;html=1;fontSize=21;" parent="1" vertex="1">
                    <mxGeometry x="1737.5" y="990" width="120" height="80" as="geometry"/>
                </mxCell>
                <mxCell id="wPz8ffhpFI3xmUe8NB3q-58" style="edgeStyle=none;rounded=0;orthogonalLoop=1;jettySize=auto;html=1;exitX=1;exitY=1;exitDx=0;exitDy=0;entryX=0;entryY=0;entryDx=0;entryDy=0;fontSize=21;" parent="1" source="wPz8ffhpFI3xmUe8NB3q-59" target="wPz8ffhpFI3xmUe8NB3q-61" edge="1">
                    <mxGeometry relative="1" as="geometry"/>
                </mxCell>
                <mxCell id="wPz8ffhpFI3xmUe8NB3q-59" value="id" style="ellipse;whiteSpace=wrap;html=1;fontSize=21;" parent="1" vertex="1">
                    <mxGeometry x="1910" y="1070" width="120" height="80" as="geometry"/>
                </mxCell>
                <mxCell id="wPz8ffhpFI3xmUe8NB3q-84" style="edgeStyle=none;rounded=0;orthogonalLoop=1;jettySize=auto;html=1;exitX=0;exitY=1;exitDx=0;exitDy=0;entryX=1;entryY=0;entryDx=0;entryDy=0;fontSize=21;" parent="1" source="wPz8ffhpFI3xmUe8NB3q-61" target="wPz8ffhpFI3xmUe8NB3q-80" edge="1">
                    <mxGeometry relative="1" as="geometry"/>
                </mxCell>
                <mxCell id="wPz8ffhpFI3xmUe8NB3q-61" value="receta" style="ellipse;whiteSpace=wrap;html=1;fontSize=21;" parent="1" vertex="1">
                    <mxGeometry x="2057.5" y="1150" width="120" height="80" as="geometry"/>
                </mxCell>
                <mxCell id="wPz8ffhpFI3xmUe8NB3q-66" style="edgeStyle=none;rounded=0;orthogonalLoop=1;jettySize=auto;html=1;exitX=1;exitY=1;exitDx=0;exitDy=0;entryX=0;entryY=0;entryDx=0;entryDy=0;fontSize=21;" parent="1" source="wPz8ffhpFI3xmUe8NB3q-67" target="wPz8ffhpFI3xmUe8NB3q-69" edge="1">
                    <mxGeometry relative="1" as="geometry"/>
                </mxCell>
                <mxCell id="wPz8ffhpFI3xmUe8NB3q-67" value="descripciÃ³n" style="ellipse;whiteSpace=wrap;html=1;fontSize=21;" parent="1" vertex="1">
                    <mxGeometry x="2772.5" y="1070" width="120" height="80" as="geometry"/>
                </mxCell>
                <mxCell id="wPz8ffhpFI3xmUe8NB3q-68" style="edgeStyle=none;rounded=0;orthogonalLoop=1;jettySize=auto;html=1;exitX=1;exitY=1;exitDx=0;exitDy=0;entryX=0;entryY=0;entryDx=0;entryDy=0;fontSize=21;" parent="1" source="wPz8ffhpFI3xmUe8NB3q-69" target="wPz8ffhpFI3xmUe8NB3q-71" edge="1">
                    <mxGeometry relative="1" as="geometry"/>
                </mxCell>
                <mxCell id="wPz8ffhpFI3xmUe8NB3q-69" value="id" style="ellipse;whiteSpace=wrap;html=1;fontSize=21;" parent="1" vertex="1">
                    <mxGeometry x="2912.5" y="1140" width="120" height="80" as="geometry"/>
                </mxCell>
                <mxCell id="wPz8ffhpFI3xmUe8NB3q-102" style="edgeStyle=none;rounded=0;orthogonalLoop=1;jettySize=auto;html=1;exitX=0;exitY=1;exitDx=0;exitDy=0;entryX=1;entryY=0;entryDx=0;entryDy=0;fontSize=21;" parent="1" source="wPz8ffhpFI3xmUe8NB3q-71" target="wPz8ffhpFI3xmUe8NB3q-98" edge="1">
                    <mxGeometry relative="1" as="geometry"/>
                </mxCell>
                <mxCell id="wPz8ffhpFI3xmUe8NB3q-71" value="receta" style="ellipse;whiteSpace=wrap;html=1;fontSize=21;" parent="1" vertex="1">
                    <mxGeometry x="3082.5" y="1220" width="120" height="80" as="geometry"/>
                </mxCell>
                <mxCell id="wPz8ffhpFI3xmUe8NB3q-78" style="edgeStyle=none;rounded=0;orthogonalLoop=1;jettySize=auto;html=1;exitX=1;exitY=1;exitDx=0;exitDy=0;fontSize=21;" parent="1" source="wPz8ffhpFI3xmUe8NB3q-76" target="wPz8ffhpFI3xmUe8NB3q-44" edge="1">
                    <mxGeometry relative="1" as="geometry"/>
                </mxCell>
                <mxCell id="wPz8ffhpFI3xmUe8NB3q-76" value="ingrediente" style="ellipse;whiteSpace=wrap;html=1;fontSize=21;" parent="1" vertex="1">
                    <mxGeometry x="1257.5" y="1230" width="120" height="80" as="geometry"/>
                </mxCell>
                <mxCell id="wPz8ffhpFI3xmUe8NB3q-79" style="edgeStyle=none;rounded=0;orthogonalLoop=1;jettySize=auto;html=1;exitX=0;exitY=1;exitDx=0;exitDy=0;entryX=1;entryY=0;entryDx=0;entryDy=0;fontSize=21;" parent="1" source="wPz8ffhpFI3xmUe8NB3q-80" target="wPz8ffhpFI3xmUe8NB3q-83" edge="1">
                    <mxGeometry relative="1" as="geometry"/>
                </mxCell>
                <mxCell id="wPz8ffhpFI3xmUe8NB3q-80" value="0" style="ellipse;whiteSpace=wrap;html=1;fontSize=21;" parent="1" vertex="1">
                    <mxGeometry x="1907.5" y="1230" width="120" height="80" as="geometry"/>
                </mxCell>
                <mxCell id="wPz8ffhpFI3xmUe8NB3q-81" value="cantidad" style="ellipse;whiteSpace=wrap;html=1;fontSize=21;" parent="1" vertex="1">
                    <mxGeometry x="1910" y="1400" width="120" height="80" as="geometry"/>
                </mxCell>
                <mxCell id="wPz8ffhpFI3xmUe8NB3q-82" style="edgeStyle=none;rounded=0;orthogonalLoop=1;jettySize=auto;html=1;exitX=1;exitY=1;exitDx=0;exitDy=0;fontSize=21;" parent="1" source="wPz8ffhpFI3xmUe8NB3q-83" target="wPz8ffhpFI3xmUe8NB3q-81" edge="1">
                    <mxGeometry relative="1" as="geometry"/>
                </mxCell>
                <mxCell id="wPz8ffhpFI3xmUe8NB3q-83" value="ingrediente" style="ellipse;whiteSpace=wrap;html=1;fontSize=21;" parent="1" vertex="1">
                    <mxGeometry x="1737.5" y="1320" width="120" height="80" as="geometry"/>
                </mxCell>
                <mxCell id="wPz8ffhpFI3xmUe8NB3q-85" style="edgeStyle=none;rounded=0;orthogonalLoop=1;jettySize=auto;html=1;exitX=0;exitY=1;exitDx=0;exitDy=0;entryX=1;entryY=0;entryDx=0;entryDy=0;fontSize=21;" parent="1" source="wPz8ffhpFI3xmUe8NB3q-86" target="wPz8ffhpFI3xmUe8NB3q-89" edge="1">
                    <mxGeometry relative="1" as="geometry"/>
                </mxCell>
                <mxCell id="wPz8ffhpFI3xmUe8NB3q-96" style="edgeStyle=none;rounded=0;orthogonalLoop=1;jettySize=auto;html=1;exitX=1;exitY=1;exitDx=0;exitDy=0;entryX=0;entryY=0;entryDx=0;entryDy=0;fontSize=21;" parent="1" source="wPz8ffhpFI3xmUe8NB3q-86" target="wPz8ffhpFI3xmUe8NB3q-92" edge="1">
                    <mxGeometry relative="1" as="geometry"/>
                </mxCell>
                <mxCell id="wPz8ffhpFI3xmUe8NB3q-86" value="1" style="ellipse;whiteSpace=wrap;html=1;fontSize=21;" parent="1" vertex="1">
                    <mxGeometry x="2220" y="1310" width="120" height="80" as="geometry"/>
                </mxCell>
                <mxCell id="wPz8ffhpFI3xmUe8NB3q-87" value="cantidad" style="ellipse;whiteSpace=wrap;html=1;fontSize=21;" parent="1" vertex="1">
                    <mxGeometry x="2227.5" y="1470" width="120" height="80" as="geometry"/>
                </mxCell>
                <mxCell id="wPz8ffhpFI3xmUe8NB3q-88" style="edgeStyle=none;rounded=0;orthogonalLoop=1;jettySize=auto;html=1;exitX=1;exitY=1;exitDx=0;exitDy=0;fontSize=21;" parent="1" source="wPz8ffhpFI3xmUe8NB3q-89" target="wPz8ffhpFI3xmUe8NB3q-87" edge="1">
                    <mxGeometry relative="1" as="geometry"/>
                </mxCell>
                <mxCell id="wPz8ffhpFI3xmUe8NB3q-89" value="ingrediente" style="ellipse;whiteSpace=wrap;html=1;fontSize=21;" parent="1" vertex="1">
                    <mxGeometry x="2050" y="1400" width="120" height="80" as="geometry"/>
                </mxCell>
                <mxCell id="wPz8ffhpFI3xmUe8NB3q-91" style="edgeStyle=none;rounded=0;orthogonalLoop=1;jettySize=auto;html=1;exitX=0;exitY=1;exitDx=0;exitDy=0;entryX=1;entryY=0;entryDx=0;entryDy=0;fontSize=21;" parent="1" source="wPz8ffhpFI3xmUe8NB3q-92" target="wPz8ffhpFI3xmUe8NB3q-95" edge="1">
                    <mxGeometry relative="1" as="geometry"/>
                </mxCell>
                <mxCell id="wPz8ffhpFI3xmUe8NB3q-92" value="2" style="ellipse;whiteSpace=wrap;html=1;fontSize=21;" parent="1" vertex="1">
                    <mxGeometry x="2570" y="1405" width="120" height="80" as="geometry"/>
                </mxCell>
                <mxCell id="wPz8ffhpFI3xmUe8NB3q-93" value="cantidad" style="ellipse;whiteSpace=wrap;html=1;fontSize=21;" parent="1" vertex="1">
                    <mxGeometry x="2567.5" y="1535" width="120" height="80" as="geometry"/>
                </mxCell>
                <mxCell id="wPz8ffhpFI3xmUe8NB3q-94" style="edgeStyle=none;rounded=0;orthogonalLoop=1;jettySize=auto;html=1;exitX=1;exitY=1;exitDx=0;exitDy=0;fontSize=21;" parent="1" source="wPz8ffhpFI3xmUe8NB3q-95" target="wPz8ffhpFI3xmUe8NB3q-93" edge="1">
                    <mxGeometry relative="1" as="geometry"/>
                </mxCell>
                <mxCell id="wPz8ffhpFI3xmUe8NB3q-95" value="ingrediente" style="ellipse;whiteSpace=wrap;html=1;fontSize=21;" parent="1" vertex="1">
                    <mxGeometry x="2400" y="1475" width="120" height="80" as="geometry"/>
                </mxCell>
                <mxCell id="wPz8ffhpFI3xmUe8NB3q-97" style="edgeStyle=none;rounded=0;orthogonalLoop=1;jettySize=auto;html=1;exitX=0;exitY=1;exitDx=0;exitDy=0;entryX=1;entryY=0;entryDx=0;entryDy=0;fontSize=21;" parent="1" source="wPz8ffhpFI3xmUe8NB3q-98" target="wPz8ffhpFI3xmUe8NB3q-101" edge="1">
                    <mxGeometry relative="1" as="geometry"/>
                </mxCell>
                <mxCell id="wPz8ffhpFI3xmUe8NB3q-98" value="0" style="ellipse;whiteSpace=wrap;html=1;fontSize=21;" parent="1" vertex="1">
                    <mxGeometry x="2912.5" y="1310" width="120" height="80" as="geometry"/>
                </mxCell>
                <mxCell id="wPz8ffhpFI3xmUe8NB3q-99" value="cantidad" style="ellipse;whiteSpace=wrap;html=1;fontSize=21;" parent="1" vertex="1">
                    <mxGeometry x="2912.5" y="1485" width="120" height="80" as="geometry"/>
                </mxCell>
                <mxCell id="wPz8ffhpFI3xmUe8NB3q-100" style="edgeStyle=none;rounded=0;orthogonalLoop=1;jettySize=auto;html=1;exitX=1;exitY=1;exitDx=0;exitDy=0;fontSize=21;" parent="1" source="wPz8ffhpFI3xmUe8NB3q-101" target="wPz8ffhpFI3xmUe8NB3q-99" edge="1">
                    <mxGeometry relative="1" as="geometry"/>
                </mxCell>
                <mxCell id="wPz8ffhpFI3xmUe8NB3q-101" value="ingrediente" style="ellipse;whiteSpace=wrap;html=1;fontSize=21;" parent="1" vertex="1">
                    <mxGeometry x="2772.5" y="1395" width="120" height="80" as="geometry"/>
                </mxCell>
                <mxCell id="wPz8ffhpFI3xmUe8NB3q-110" style="edgeStyle=none;rounded=0;orthogonalLoop=1;jettySize=auto;html=1;exitX=0.5;exitY=1;exitDx=0;exitDy=0;entryX=0.5;entryY=0;entryDx=0;entryDy=0;fontSize=21;" parent="1" source="wPz8ffhpFI3xmUe8NB3q-108" target="wPz8ffhpFI3xmUe8NB3q-13" edge="1">
                    <mxGeometry relative="1" as="geometry"/>
                </mxCell>
                <mxCell id="wPz8ffhpFI3xmUe8NB3q-111" style="edgeStyle=none;rounded=0;orthogonalLoop=1;jettySize=auto;html=1;exitX=0.5;exitY=1;exitDx=0;exitDy=0;entryX=0.5;entryY=0;entryDx=0;entryDy=0;fontSize=21;" parent="1" source="wPz8ffhpFI3xmUe8NB3q-108" target="wPz8ffhpFI3xmUe8NB3q-14" edge="1">
                    <mxGeometry relative="1" as="geometry"/>
                </mxCell>
                <mxCell id="wPz8ffhpFI3xmUe8NB3q-108" value="0" style="ellipse;whiteSpace=wrap;html=1;fontSize=21;" parent="1" vertex="1">
                    <mxGeometry x="1737.5" y="340" width="120" height="80" as="geometry"/>
                </mxCell>
                <mxCell id="wPz8ffhpFI3xmUe8NB3q-128" value="descripciÃ³n" style="ellipse;whiteSpace=wrap;html=1;fontSize=21;" parent="1" vertex="1">
                    <mxGeometry x="2170" y="240" width="120" height="80" as="geometry"/>
                </mxCell>
                <mxCell id="wPz8ffhpFI3xmUe8NB3q-129" value="id" style="ellipse;whiteSpace=wrap;html=1;fontSize=21;" parent="1" vertex="1">
                    <mxGeometry x="2310" y="240" width="120" height="80" as="geometry"/>
                </mxCell>
                <mxCell id="wPz8ffhpFI3xmUe8NB3q-130" style="edgeStyle=none;rounded=0;orthogonalLoop=1;jettySize=auto;html=1;exitX=0.5;exitY=1;exitDx=0;exitDy=0;entryX=0.5;entryY=0;entryDx=0;entryDy=0;fontSize=21;" parent="1" source="wPz8ffhpFI3xmUe8NB3q-131" target="wPz8ffhpFI3xmUe8NB3q-136" edge="1">
                    <mxGeometry relative="1" as="geometry"/>
                </mxCell>
                <mxCell id="wPz8ffhpFI3xmUe8NB3q-150" style="edgeStyle=none;rounded=0;orthogonalLoop=1;jettySize=auto;html=1;exitX=0.5;exitY=1;exitDx=0;exitDy=0;entryX=0.5;entryY=0;entryDx=0;entryDy=0;fontSize=21;" parent="1" source="wPz8ffhpFI3xmUe8NB3q-131" target="wPz8ffhpFI3xmUe8NB3q-144" edge="1">
                    <mxGeometry relative="1" as="geometry"/>
                </mxCell>
                <mxCell id="wPz8ffhpFI3xmUe8NB3q-151" style="edgeStyle=none;rounded=0;orthogonalLoop=1;jettySize=auto;html=1;exitX=0.5;exitY=1;exitDx=0;exitDy=0;entryX=0.5;entryY=0;entryDx=0;entryDy=0;fontSize=21;" parent="1" source="wPz8ffhpFI3xmUe8NB3q-131" target="wPz8ffhpFI3xmUe8NB3q-149" edge="1">
                    <mxGeometry relative="1" as="geometry"/>
                </mxCell>
                <mxCell id="wPz8ffhpFI3xmUe8NB3q-131" value="receta" style="ellipse;whiteSpace=wrap;html=1;fontSize=21;" parent="1" vertex="1">
                    <mxGeometry x="2450" y="240" width="120" height="80" as="geometry"/>
                </mxCell>
                <mxCell id="wPz8ffhpFI3xmUe8NB3q-132" value="ingrediente" style="ellipse;whiteSpace=wrap;html=1;fontSize=21;" parent="1" vertex="1">
                    <mxGeometry x="2000" y="440" width="120" height="80" as="geometry"/>
                </mxCell>
                <mxCell id="wPz8ffhpFI3xmUe8NB3q-133" value="cantidad" style="ellipse;whiteSpace=wrap;html=1;fontSize=21;" parent="1" vertex="1">
                    <mxGeometry x="2180" y="440" width="120" height="80" as="geometry"/>
                </mxCell>
                <mxCell id="wPz8ffhpFI3xmUe8NB3q-134" style="edgeStyle=none;rounded=0;orthogonalLoop=1;jettySize=auto;html=1;exitX=0.5;exitY=1;exitDx=0;exitDy=0;entryX=0.5;entryY=0;entryDx=0;entryDy=0;fontSize=21;" parent="1" source="wPz8ffhpFI3xmUe8NB3q-136" target="wPz8ffhpFI3xmUe8NB3q-132" edge="1">
                    <mxGeometry relative="1" as="geometry"/>
                </mxCell>
                <mxCell id="wPz8ffhpFI3xmUe8NB3q-135" style="edgeStyle=none;rounded=0;orthogonalLoop=1;jettySize=auto;html=1;exitX=0.5;exitY=1;exitDx=0;exitDy=0;entryX=0.5;entryY=0;entryDx=0;entryDy=0;fontSize=21;" parent="1" source="wPz8ffhpFI3xmUe8NB3q-136" target="wPz8ffhpFI3xmUe8NB3q-133" edge="1">
                    <mxGeometry relative="1" as="geometry"/>
                </mxCell>
                <mxCell id="wPz8ffhpFI3xmUe8NB3q-136" value="0" style="ellipse;whiteSpace=wrap;html=1;fontSize=21;" parent="1" vertex="1">
                    <mxGeometry x="2097.5" y="350" width="120" height="80" as="geometry"/>
                </mxCell>
                <mxCell id="wPz8ffhpFI3xmUe8NB3q-140" value="ingrediente" style="ellipse;whiteSpace=wrap;html=1;fontSize=21;" parent="1" vertex="1">
                    <mxGeometry x="2350" y="440" width="120" height="80" as="geometry"/>
                </mxCell>
                <mxCell id="wPz8ffhpFI3xmUe8NB3q-141" value="cantidad" style="ellipse;whiteSpace=wrap;html=1;fontSize=21;" parent="1" vertex="1">
                    <mxGeometry x="2530" y="440" width="120" height="80" as="geometry"/>
                </mxCell>
                <mxCell id="wPz8ffhpFI3xmUe8NB3q-142" style="edgeStyle=none;rounded=0;orthogonalLoop=1;jettySize=auto;html=1;exitX=0.5;exitY=1;exitDx=0;exitDy=0;entryX=0.5;entryY=0;entryDx=0;entryDy=0;fontSize=21;" parent="1" source="wPz8ffhpFI3xmUe8NB3q-144" target="wPz8ffhpFI3xmUe8NB3q-140" edge="1">
                    <mxGeometry relative="1" as="geometry"/>
                </mxCell>
                <mxCell id="wPz8ffhpFI3xmUe8NB3q-143" style="edgeStyle=none;rounded=0;orthogonalLoop=1;jettySize=auto;html=1;exitX=0.5;exitY=1;exitDx=0;exitDy=0;entryX=0.5;entryY=0;entryDx=0;entryDy=0;fontSize=21;" parent="1" source="wPz8ffhpFI3xmUe8NB3q-144" target="wPz8ffhpFI3xmUe8NB3q-141" edge="1">
                    <mxGeometry relative="1" as="geometry"/>
                </mxCell>
                <mxCell id="wPz8ffhpFI3xmUe8NB3q-144" value="1" style="ellipse;whiteSpace=wrap;html=1;fontSize=21;" parent="1" vertex="1">
                    <mxGeometry x="2447.5" y="350" width="120" height="80" as="geometry"/>
                </mxCell>
                <mxCell id="wPz8ffhpFI3xmUe8NB3q-145" value="ingrediente" style="ellipse;whiteSpace=wrap;html=1;fontSize=21;" parent="1" vertex="1">
                    <mxGeometry x="2690" y="440" width="120" height="80" as="geometry"/>
                </mxCell>
                <mxCell id="wPz8ffhpFI3xmUe8NB3q-146" value="cantidad" style="ellipse;whiteSpace=wrap;html=1;fontSize=21;" parent="1" vertex="1">
                    <mxGeometry x="2870" y="440" width="120" height="80" as="geometry"/>
                </mxCell>
                <mxCell id="wPz8ffhpFI3xmUe8NB3q-147" style="edgeStyle=none;rounded=0;orthogonalLoop=1;jettySize=auto;html=1;exitX=0.5;exitY=1;exitDx=0;exitDy=0;entryX=0.5;entryY=0;entryDx=0;entryDy=0;fontSize=21;" parent="1" source="wPz8ffhpFI3xmUe8NB3q-149" target="wPz8ffhpFI3xmUe8NB3q-145" edge="1">
                    <mxGeometry relative="1" as="geometry"/>
                </mxCell>
                <mxCell id="wPz8ffhpFI3xmUe8NB3q-148" style="edgeStyle=none;rounded=0;orthogonalLoop=1;jettySize=auto;html=1;exitX=0.5;exitY=1;exitDx=0;exitDy=0;entryX=0.5;entryY=0;entryDx=0;entryDy=0;fontSize=21;" parent="1" source="wPz8ffhpFI3xmUe8NB3q-149" target="wPz8ffhpFI3xmUe8NB3q-146" edge="1">
                    <mxGeometry relative="1" as="geometry"/>
                </mxCell>
                <mxCell id="wPz8ffhpFI3xmUe8NB3q-149" value="2" style="ellipse;whiteSpace=wrap;html=1;fontSize=21;" parent="1" vertex="1">
                    <mxGeometry x="2787.5" y="350" width="120" height="80" as="geometry"/>
                </mxCell>
                <mxCell id="wPz8ffhpFI3xmUe8NB3q-152" value="Arbol m-ario" style="text;html=1;strokeColor=none;fillColor=none;align=center;verticalAlign=middle;whiteSpace=wrap;rounded=0;fontSize=52;" parent="1" vertex="1">
                    <mxGeometry x="1040" y="240" width="330" height="30" as="geometry"/>
                </mxCell>
                <mxCell id="wPz8ffhpFI3xmUe8NB3q-153" value="Arbol binario" style="text;html=1;strokeColor=none;fillColor=none;align=center;verticalAlign=middle;whiteSpace=wrap;rounded=0;fontSize=52;" parent="1" vertex="1">
                    <mxGeometry x="850" y="1130" width="330" height="30" as="geometry"/>
                </mxCell>
                <mxCell id="4" value="" style="edgeStyle=none;html=1;fontSize=48;" edge="1" parent="1" source="2" target="3">
                    <mxGeometry relative="1" as="geometry"/>
                </mxCell>
                <mxCell id="6" value="" style="edgeStyle=none;html=1;fontSize=48;" edge="1" parent="1" source="2" target="5">
                    <mxGeometry relative="1" as="geometry"/>
                </mxCell>
                <mxCell id="2" value="&lt;font style=&quot;font-size: 48px&quot;&gt;NODO&lt;/font&gt;" style="ellipse;whiteSpace=wrap;html=1;" vertex="1" parent="1">
                    <mxGeometry x="580" y="30" width="240" height="100" as="geometry"/>
                </mxCell>
                <mxCell id="3" value="&lt;font style=&quot;font-size: 48px&quot;&gt;LLAVE&lt;/font&gt;" style="ellipse;whiteSpace=wrap;html=1;" vertex="1" parent="1">
                    <mxGeometry x="970" y="70" width="240" height="100" as="geometry"/>
                </mxCell>
                <mxCell id="5" value="&lt;font style=&quot;font-size: 48px&quot;&gt;VALOR&lt;/font&gt;" style="ellipse;whiteSpace=wrap;html=1;" vertex="1" parent="1">
                    <mxGeometry x="870" y="-130" width="240" height="100" as="geometry"/>
                </mxCell>
                <mxCell id="7" value="cafe solo" style="ellipse;whiteSpace=wrap;html=1;fontSize=21;" vertex="1" parent="1">
                    <mxGeometry x="1447.5" y="310" width="120" height="80" as="geometry"/>
                </mxCell>
                <mxCell id="9" value="cafe" style="ellipse;whiteSpace=wrap;html=1;fontSize=21;" vertex="1" parent="1">
                    <mxGeometry x="1567.5" y="520" width="120" height="80" as="geometry"/>
                </mxCell>
                <mxCell id="11" value="200" style="ellipse;whiteSpace=wrap;html=1;fontSize=21;" vertex="1" parent="1">
                    <mxGeometry x="1857.5" y="540" width="120" height="80" as="geometry"/>
                </mxCell>
            </root>
        </mxGraphModel>
    </diagram>
</mxfile>